<svg width="300" height="600" xmlns="http://www.w3.org/2000/svg">

 <g>
  <title>Layer 1</title>
  <g stroke="null">
   <g stroke="null" transform="translate(-208 -2594)" id="svg_2">
    <g stroke="null" fill="#1c1d32" transform="translate(208 2594)" id="svg_3">
     <path stroke="null" d="m-8.00001,593.03332c-39.56139,0 -77.93683,-7.74706 -114.06025,-23.02596c-17.36237,-7.34366 -34.10873,-16.43336 -49.77405,-27.01658c-15.51765,-10.48359 -30.10997,-22.52334 -43.37157,-35.78493c-13.2616,-13.26155 -25.30134,-27.85391 -35.78493,-43.37162c-10.58322,-15.66526 -19.67297,-32.41162 -27.01658,-49.774c-15.27886,-36.12336 -23.02596,-74.49881 -23.02596,-114.06025c0,-39.56139 7.74711,-77.93683 23.02596,-114.06025c7.34361,-17.36237 16.43336,-34.10873 27.01658,-49.77405c10.48359,-15.51765 22.52334,-30.10997 35.78493,-43.37157c13.2616,-13.2616 27.85391,-25.30134 43.37157,-35.78493c15.66531,-10.58322 32.41167,-19.67297 49.77405,-27.01658c36.12341,-15.27886 74.49886,-23.02596 114.06025,-23.02596c39.56144,0 77.93688,7.74711 114.06025,23.02596c17.36237,7.34361 34.10873,16.43336 49.774,27.01658c15.5177,10.48359 30.11007,22.52334 43.37162,35.78493c13.2616,13.2616 25.30134,27.85391 35.78493,43.37157c10.58322,15.66531 19.67292,32.41167 27.01658,49.77405c15.27891,36.12341 23.02596,74.49886 23.02596,114.06025c0,39.56144 -7.74706,77.93688 -23.02596,114.06025c-7.34366,17.36237 -16.43336,34.10873 -27.01658,49.774c-10.48359,15.5177 -22.52334,30.11007 -35.78493,43.37162c-13.26155,13.2616 -27.85391,25.30134 -43.37162,35.78493c-15.66526,10.58322 -32.41162,19.67292 -49.774,27.01658c-36.12336,15.27891 -74.49881,23.02596 -114.06025,23.02596z"/>
     <path stroke="null" fill="#ddbee4" d="m-8.00001,11.93332c-38.89312,0 -76.61764,7.61504 -112.12548,22.6336c-17.06706,7.2188 -33.52892,16.15408 -48.92837,26.55776c-15.25576,10.30658 -29.60198,22.14334 -42.64008,35.18138c-13.03805,13.0381 -24.87481,27.38431 -35.18138,42.64008c-10.40368,15.39945 -19.33896,31.86132 -26.55776,48.92837c-15.01855,35.50784 -22.6336,73.23236 -22.6336,112.12548c0,38.89312 7.61504,76.61759 22.6336,112.12548c7.2188,17.06706 16.15408,33.52892 26.55776,48.92837c10.30658,15.25576 22.14334,29.60198 35.18138,42.64008c13.0381,13.03805 27.38431,24.87481 42.64008,35.18138c15.39945,10.40368 31.86132,19.33896 48.92837,26.55776c35.50784,15.01855 73.23236,22.6336 112.12548,22.6336c38.89312,0 76.61759,-7.61504 112.12548,-22.6336c17.06706,-7.2188 33.52892,-16.15408 48.92837,-26.55776c15.25576,-10.30658 29.60198,-22.14334 42.64008,-35.18138c13.03805,-13.0381 24.87481,-27.38431 35.18138,-42.64008c10.40368,-15.39945 19.33896,-31.86132 26.55776,-48.92837c15.01855,-35.50789 22.6336,-73.23236 22.6336,-112.12548c0,-38.89312 -7.61504,-76.61764 -22.6336,-112.12548c-7.2188,-17.06706 -16.15408,-33.52892 -26.55776,-48.92837c-10.30658,-15.25576 -22.14334,-29.60198 -35.18138,-42.64008c-13.0381,-13.03805 -27.38431,-24.87481 -42.64008,-35.18138c-15.39945,-10.40368 -31.86132,-19.33896 -48.92837,-26.55776c-35.50789,-15.01855 -73.23236,-22.6336 -112.12548,-22.6336m0,-9.93333c164.58083,0 298,133.41917 298,298c0,164.58083 -133.41917,298 -298,298c-164.58083,0 -298,-133.41917 -298,-298c0,-164.58083 133.41917,-298 298,-298z"/>
    </g>
   </g>
  </g>
 </g>
</svg>