<svg xmlns="http://www.w3.org/2000/svg" xmlns:xlink="http://www.w3.org/1999/xlink" width="90" height="90" viewBox="0 0 90 90">
  <defs>
    <clipPath id="clip-path">
      <rect id="Rectangle_84" data-name="Rectangle 84" width="90" height="90" transform="translate(-0.73 -0.73)" fill="none"/>
    </clipPath>
  </defs>
  <g id="Group_422" data-name="Group 422" transform="translate(0.73 0.73)" clip-path="url(#clip-path)">
    <path id="Path_7182" data-name="Path 7182" d="M44.446,88.893a44.458,44.458,0,0,1-17.3-85.4A44.458,44.458,0,0,1,61.747,85.4a44.169,44.169,0,0,1-17.3,3.493m0-87.15a42.7,42.7,0,1,0,42.7,42.7,42.752,42.752,0,0,0-42.7-42.7" transform="translate(-0.177 -0.177)" fill="#fff"/>
    <path id="Path_7183" data-name="Path 7183" d="M250.071,171.911a.335.335,0,0,0-.149.243,5.221,5.221,0,0,0-1.014,2.187,8.234,8.234,0,0,0,.359,3.808,5.392,5.392,0,0,0,2,2.847c.03.17.174.238.3.318a4.753,4.753,0,0,0,1.8.665,3.48,3.48,0,0,0,2.688-.185,1.268,1.268,0,0,1,.554-.157,3.9,3.9,0,0,0,1.764-.729c.61-.4,1.22-.8,1.83-1.2.269-.174.539-.318.5-.736-.021-.215.174-.07.282-.044a6.847,6.847,0,0,0,1.408,2.344,1.14,1.14,0,0,0,.386.425,8.413,8.413,0,0,0,3.358,1.754,12.684,12.684,0,0,0,4.411.436,14.346,14.346,0,0,0,3.911-.81,7.022,7.022,0,0,0,2.323-1.249,7.765,7.765,0,0,0,2.628-5.046c.031-.294.087-.585.14-.923a3.166,3.166,0,0,1,.121,1.75,5.991,5.991,0,0,1-.872,2.679,1.815,1.815,0,0,0-.349.686c-.045.028-.107.054-.029.11.006,0,.048-.042.073-.064l1.8-.529a2.311,2.311,0,0,0,.383-.03c.662-.162.654-.165.563-.862a25.328,25.328,0,0,0-1.382-5.158,4.649,4.649,0,0,0-.691-1.307,1.245,1.245,0,0,0,.044.5c.07.581.391,1.092.46,1.672l-.283-.007a3.232,3.232,0,0,0-.911-1.681,8.821,8.821,0,0,1,1.944-5.636,11.3,11.3,0,0,1,3.977-3.246,1.294,1.294,0,0,0,.726-.534c-1.017-.037-1.954-.067-2.894-.01-1.7.064-3.392.293-5.089.436a19.062,19.062,0,0,0-3.971.843c-1.172.357-2.365.647-3.557.936-.417.1-.845.152-1.255.292-.675.23-.836.443-.872,1.22a1.556,1.556,0,0,0-.016.316c.106.679.267.771.94.6a.416.416,0,0,0,.356-.3c.113-.342.273-.67.413-1a2.358,2.358,0,0,1,1.569-1.117c-.2.38-.547.533-.684.847a1.894,1.894,0,0,0-.6,1.177.27.27,0,0,0,.253.363,3.823,3.823,0,0,1,.754.164c.3.112.426.067.583-.242A2.679,2.679,0,0,1,273,167.091l.056.061c-.208.185-.417.368-.623.553a2.038,2.038,0,0,0-.633,1.376.439.439,0,0,0,.174.455l1.117.768a2.163,2.163,0,0,1,1.785-1.465,3.578,3.578,0,0,1-.441.468,1.818,1.818,0,0,0-.332,2.337,6.862,6.862,0,0,1,.349.691c1.084,2.644,1.245,5.18-.571,7.652-1.879,2.56-6.165,2.73-7.986.243a10.4,10.4,0,0,1-.959-3.246,8.048,8.048,0,0,1,.85-4.927c.277-.509.28-.507-.191-.925a9.531,9.531,0,0,1-.816-1.7c-.057-.3.03-.621-.149-.933a4.248,4.248,0,0,0-1.333,1.587c-.078.163-.087.394-.349.41a1.251,1.251,0,0,1,.2-.86,4.278,4.278,0,0,1,.843-1.216c.349-.344.341-.358-.018-.7a6.344,6.344,0,0,0-1.313-.933,11.945,11.945,0,0,0-2.715-1.014,6.317,6.317,0,0,0-2.628-.136.754.754,0,0,1-.817-.325,10.174,10.174,0,0,1-1.109-1.964,5.772,5.772,0,0,0-2.319-2.445,2.047,2.047,0,0,0-.784-.549,40.784,40.784,0,0,0-5.275-2.411c-.593-.227-1.192-.436-1.939-.714,1.01,2.322,2.108,4.425,3.2,6.532,0,.078.018.142.1.166l-.014-.017a.253.253,0,0,0,.141.271l-.01-.012a.236.236,0,0,0,.136.271l-.01.01a6.7,6.7,0,0,0,.5,1.245,12.541,12.541,0,0,1,1.055,5.942.414.414,0,0,0-.111.275" transform="translate(-223.898 -143.704)" fill="#040303"/>
    <path id="Path_7184" data-name="Path 7184" d="M244.164,161.172a14.615,14.615,0,0,1-3.765-.523,9.769,9.769,0,0,1-3.873-2.025l-.049-.041a2.39,2.39,0,0,1-.544-.585,5.559,5.559,0,0,1-.775-1.027l-.556.366-.915.6a5.136,5.136,0,0,1-2.359.937l-.045,0a4.485,4.485,0,0,1-3.348.359l-.181-.032a6.025,6.025,0,0,1-2.283-.845l-.047-.03a1.925,1.925,0,0,1-.588-.537,6.7,6.7,0,0,1-2.218-3.318,9.492,9.492,0,0,1-.4-4.407,6.21,6.21,0,0,1,1.114-2.556,1.635,1.635,0,0,1,.151-.288l.016-.039a11.414,11.414,0,0,0-.98-5.054c-.041-.1-.092-.207-.147-.321a6.121,6.121,0,0,1-.33-.795,1.488,1.488,0,0,1-.157-.318,1.543,1.543,0,0,1-.112-.233,1.46,1.46,0,0,1-.14-.335h0c-1.057-2.036-2.15-4.141-3.151-6.44l-1.227-2.819,2.881,1.072c.323.12.617.227.9.328.365.133.709.258,1.053.389a42.07,42.07,0,0,1,5.445,2.49c.037.021.082.043.126.066a3.058,3.058,0,0,1,.895.63,6.943,6.943,0,0,1,2.629,2.882l.071.15a9.992,9.992,0,0,0,.739,1.37,7.57,7.57,0,0,1,2.9.2,13.306,13.306,0,0,1,3,1.129,7.659,7.659,0,0,1,1.547,1.1l.206-.149.722,1.261a2.444,2.444,0,0,1,.3,1.234c0,.015,0,.033,0,.049a8.252,8.252,0,0,0,.554,1.162,1.831,1.831,0,0,1,.632.994,1.92,1.92,0,0,1-.311,1.388,6.757,6.757,0,0,0-.7,4.156,9.054,9.054,0,0,0,.783,2.715,3.333,3.333,0,0,0,2.658,1.151h0a3.929,3.929,0,0,0,3.149-1.484c1.343-1.829,1.473-3.794.42-6.369a5.6,5.6,0,0,0-.277-.547l-.015-.026a3.841,3.841,0,0,1-.291-.674l-1.431-.983a1.741,1.741,0,0,1-.338-.306,1.9,1.9,0,0,1-.851-.115,2.527,2.527,0,0,0-.476-.1l-.054-.007a1.763,1.763,0,0,1-.415-.117,1.9,1.9,0,0,1-2.921-1.536l-.01-.066,0-.067a2.868,2.868,0,0,1,.019-.509,2.3,2.3,0,0,1,1.753-2.334,7.208,7.208,0,0,1,.969-.241c.142-.028.276-.054.4-.084,1.144-.277,2.326-.563,3.484-.916a20.317,20.317,0,0,1,4.244-.9c.569-.048,1.153-.107,1.719-.165,1.111-.113,2.259-.23,3.415-.274,1.032-.061,2.08-.023,3,.01l2.147.077-1.056,1.871a2.341,2.341,0,0,1-1.2,1.028c-.026.011-.051.021-.075.033l-.01,0a10.045,10.045,0,0,0-3.517,2.871,7.894,7.894,0,0,0-1.524,3.2l.278.369a5.945,5.945,0,0,1,.882,1.665,26.635,26.635,0,0,1,1.443,5.417l0,.023a2.032,2.032,0,0,1-.214,1.511,1.99,1.99,0,0,1-1.337.769l-.1.02a3.638,3.638,0,0,1-.387.042l-1.415.416a1.28,1.28,0,0,1-.969.148q-.219.224-.456.439a8.245,8.245,0,0,1-2.736,1.5,15.334,15.334,0,0,1-4.264.891q-.543.048-1.1.048m-6.018-4.6.077.064a7.164,7.164,0,0,0,2.108,1.251,5.374,5.374,0,0,1-.891-.949l-.07-.1-.052-.107a11.677,11.677,0,0,1-1.079-3.655,9.363,9.363,0,0,1,.819-5.366q-.16-.266-.305-.541a1.556,1.556,0,0,1-1.126.561l-1.081.065-.265-1.051a2.358,2.358,0,0,1,.258-1.672l.031-.065a5.58,5.58,0,0,1,.508-.877q-.209-.14-.43-.258l-.021-.011a10.831,10.831,0,0,0-2.423-.894,4.97,4.97,0,0,0-2.077-.106l-.011,0a2.052,2.052,0,0,1-2.039-.81A10.412,10.412,0,0,1,228.888,140l-.072-.152a4.464,4.464,0,0,0-1.824-1.9l-.233-.143-.122-.175c-.043-.026-.12-.065-.178-.1s-.132-.068-.2-.1a37,37,0,0,0-4.046-1.915c.573,1.164,1.159,2.293,1.734,3.4l.085.164.25.313,1.252.528-.462.46.164.2,2.54,2.964-2.325-1a13.033,13.033,0,0,1,.627,5.13l-.038.449-.073.078-.005.348-.329.217-.047.067a3.974,3.974,0,0,0-.792,1.644,6.86,6.86,0,0,0,.317,3.21,4.111,4.111,0,0,0,1.514,2.175l.429.309.015.086a3.425,3.425,0,0,0,1.087.356l.03,0,.207.037c.817.146,1.209.188,1.541-.029l.082-.049a2.592,2.592,0,0,1,1.085-.316,2.791,2.791,0,0,0,1.152-.522l.905-.595.856-.563a1.367,1.367,0,0,1,.53-.843,1.4,1.4,0,0,1,1.415-.138l.55.133.35.787a5.2,5.2,0,0,0,1.022,1.725l.215.2Zm11.7-9.63a8.212,8.212,0,0,1,.406.807l.011.026c1.4,3.425,1.167,6.344-.727,8.922a5.951,5.951,0,0,1-1.132,1.164l.186-.069a6.043,6.043,0,0,0,1.909-.993,6.45,6.45,0,0,0,2.21-4.221c.026-.244.064-.469.1-.708v0l-.078-.257a2.229,2.229,0,0,0-.5-1.055l-.459-.383-.011-.6a10.137,10.137,0,0,1,2.213-6.454,12.607,12.607,0,0,1,1.476-1.6c-.6.049-1.213.111-1.842.175-.576.059-1.172.119-1.765.169a16.045,16.045,0,0,0-3,.585l.69.722-.368.325q.1-.014.215-.022l2.934-.2-1.816,2.313a4.9,4.9,0,0,1-.566.607.527.527,0,0,0-.094.753M234,155.031v0" transform="translate(-198.495 -119.639)"/>
    <path id="Path_7185" data-name="Path 7185" d="M205.783,398.449l-.017-.024a.407.407,0,0,0,.163.3,1.5,1.5,0,0,0,.341.61,20.1,20.1,0,0,0,4.27,4.556,38.551,38.551,0,0,0,8.881,4.987c.037.117.144.153.239.2a12.657,12.657,0,0,0,4.445,1.258,14.111,14.111,0,0,0,3.6-.251,23.3,23.3,0,0,0,4.081-.959c1.877-.7,3.721-1.482,5.585-2.209a1.162,1.162,0,0,0,.664-.652c.372-.8.77-1.59,1.153-2.384a1.336,1.336,0,0,0,.2-.8,2.712,2.712,0,0,0,.2-.4c.5-1.579,1.011-3.155,1.482-4.743A48.289,48.289,0,0,0,242.69,389a17.361,17.361,0,0,0,.19-2.64,12.987,12.987,0,0,0,.087-2.3c.01-.222-.111-.306-.317-.3a4.638,4.638,0,0,0-2.179.436,13.168,13.168,0,0,0-2.553,1.241,12.494,12.494,0,0,1-6.944,1.669,12.909,12.909,0,0,1-4.5-1.118,6.828,6.828,0,0,1-3.983-4,.336.336,0,0,0-.2-.257,19.985,19.985,0,0,1-1.972,1.64.945.945,0,0,0,.219.1,17.89,17.89,0,0,1,2.061.547c.233.062.552.091.436.485-.191,0-.417.068-.565-.012a3.748,3.748,0,0,0-1.626-.315,6.6,6.6,0,0,0-3.225.447,1.5,1.5,0,0,0-.927,1.424,3.446,3.446,0,0,0,.538,1.961,12.506,12.506,0,0,0,1.887,2.52c.02.226-.063.371-.288.225a8.135,8.135,0,0,1-.926-.7,5.8,5.8,0,0,1-2.044-3.068,4.071,4.071,0,0,1,.117-2.025c-.553-.147-1.081-.145-1.569-.325A7.369,7.369,0,0,1,210.216,381a1.984,1.984,0,0,0-.378-.669q-.247-.978-.5-1.966c-.193.087-.207.23-.249.342a21.7,21.7,0,0,0-1.2,4.673,10.173,10.173,0,0,0-.2,2.233,5.4,5.4,0,0,0,.3,2.388,1.242,1.242,0,0,1-.64-.614c-.378-.848-.987-.7-1.64-.464a8.86,8.86,0,0,0-.9.353,2.653,2.653,0,0,0-1.243,1.183,5.127,5.127,0,0,0-.548,3.2,18.674,18.674,0,0,0,2.615,6.544l-.018-.02a.381.381,0,0,0,.164.275" transform="translate(-185.446 -345.563)" fill="#040303"/>
    <path id="Path_7186" data-name="Path 7186" d="M211.207,392.5c-.3,0-.6-.011-.91-.035a13.882,13.882,0,0,1-4.9-1.381l-.017-.008a1.9,1.9,0,0,1-.452-.286,38.963,38.963,0,0,1-8.89-5.038,21.374,21.374,0,0,1-4.547-4.848c-.018-.025-.037-.05-.056-.075a2.718,2.718,0,0,1-.377-.63,1.708,1.708,0,0,1-.163-.3,1.772,1.772,0,0,1-.189-.391,19.5,19.5,0,0,1-2.674-6.817,6.386,6.386,0,0,1,.668-4l.009-.019a3.98,3.98,0,0,1,1.855-1.765,10.267,10.267,0,0,1,1.021-.4,3.869,3.869,0,0,1,1.086-.25,9.861,9.861,0,0,1,.16-1.813c.022-.141.044-.282.063-.423a23.051,23.051,0,0,1,1.265-4.943l0-.008a1.681,1.681,0,0,1,.937-1.076l1.419-.639.385,1.508q.216.844.427,1.681a2.973,2.973,0,0,1,.3.572c.019.045.038.091.049.113a6.063,6.063,0,0,0,3.482,3.008,3.389,3.389,0,0,0,.6.123,7.6,7.6,0,0,1,.849.164l.218.058a3.124,3.124,0,0,1,.546-.318,6.474,6.474,0,0,1,1.761-.507l.623-.544c.293-.256.584-.474.866-.684a6.527,6.527,0,0,0,.984-.834l.6-.681.847.32a1.592,1.592,0,0,1,.972,1.048l0,.011a5.494,5.494,0,0,0,3.277,3.225,11.573,11.573,0,0,0,4.048,1.008,11.134,11.134,0,0,0,6.226-1.507c.131-.073.262-.147.392-.221a12.2,12.2,0,0,1,2.288-1.089,5.891,5.891,0,0,1,2.561-.528l.072,0a1.613,1.613,0,0,1,1.232.456,1.582,1.582,0,0,1,.446,1.209c-.011.225-.005.465,0,.718a7.626,7.626,0,0,1-.082,1.625,13.832,13.832,0,0,1-.134,2.052c-.024.2-.048.407-.068.611a50.1,50.1,0,0,1-1.673,9.185c-.366,1.234-.762,2.478-1.144,3.68q-.172.541-.344,1.082l-.017.052-.021.051q-.049.118-.105.234a2.952,2.952,0,0,1-.327,1.039q-.2.422-.411.844c-.241.492-.49,1-.722,1.5a2.477,2.477,0,0,1-1.39,1.345c-.719.281-1.451.577-2.159.863-1.121.453-2.28.921-3.442,1.353a23.122,23.122,0,0,1-4.094.983l-.215.038a17.4,17.4,0,0,1-3.018.3m-4.382-3.636a11.085,11.085,0,0,0,3.681.994,12.921,12.921,0,0,0,3.265-.235l.217-.038a20.84,20.84,0,0,0,3.637-.859c1.125-.418,2.267-.879,3.371-1.325.7-.283,1.425-.576,2.144-.857l0,0c.247-.532.506-1.061.757-1.572q.2-.414.4-.83c.019-.038.045-.094.064-.137l-.06-.373.258-.415a1.377,1.377,0,0,0,.088-.165q.162-.513.326-1.026c.379-1.19.77-2.421,1.129-3.633a47.633,47.633,0,0,0,1.578-8.7c.021-.215.047-.433.072-.652a10.792,10.792,0,0,0,.113-1.786l-.01-.183.041-.178a3.861,3.861,0,0,0,.06-.915,1.734,1.734,0,0,0-.551.185l-.127.072-.14.042a9.588,9.588,0,0,0-1.885.9c-.137.077-.273.155-.411.231a13.858,13.858,0,0,1-7.658,1.831A14.171,14.171,0,0,1,212.236,368a10.264,10.264,0,0,1-2.281-1.364h-.61l-.061.006a1.86,1.86,0,0,1-1.14-.177,2.351,2.351,0,0,0-.89-.148l-.195-.011a5.252,5.252,0,0,0-2.6.332c-.122.056-.153.07-.162.282a2.131,2.131,0,0,0,.334,1.211l.015.024a11.41,11.41,0,0,0,1.683,2.264l.345.338.043.481a1.539,1.539,0,0,1-.7,1.5,1.484,1.484,0,0,1-1.6-.067,9.5,9.5,0,0,1-1.077-.817,7.168,7.168,0,0,1-2.456-3.759,4.642,4.642,0,0,1-.108-1.264,4.015,4.015,0,0,1-.523-.152,8.733,8.733,0,0,1-4.539-3.623q-.136.655-.229,1.317c-.021.152-.045.306-.069.46a6.629,6.629,0,0,0-.123,1.484l.011.136-.017.135a4.116,4.116,0,0,0,.246,1.816l.9,2.734-2.65-1.122a2.546,2.546,0,0,1-1.223-1.088l-.107.037-.03.01a7.645,7.645,0,0,0-.768.3,1.35,1.35,0,0,0-.622.59,3.83,3.83,0,0,0-.423,2.378,17.188,17.188,0,0,0,2.444,6.087l-.021.016.251.352.156.116.02.13,1.778,2.5a18.774,18.774,0,0,0,2.4,2.236,36.835,36.835,0,0,0,8.581,4.812l.562.234Zm-13.817-10.49-.7.521.864-.228a.9.9,0,0,0-.169-.164l.153.114a1.024,1.024,0,0,0-.152-.243" transform="translate(-171.743 -326.384)"/>
    <path id="Path_7187" data-name="Path 7187" d="M367.816,142.96l.02.008a.682.682,0,0,0-.268-.4l.013.008a1.125,1.125,0,0,0-.071-.179,22.115,22.115,0,0,0-5.948-6.408,15.239,15.239,0,0,0-3.05-1.685,33.1,33.1,0,0,0-12.679-2.451,38.275,38.275,0,0,0-4.191.261,4.651,4.651,0,0,0-1.027-.047.222.222,0,0,1-.237-.174.219.219,0,0,1,.108-.22c.169-.112.349-.208.614-.365-.861-.038-1.611-.083-2.362-.1a50.854,50.854,0,0,0-6.064.261,36.632,36.632,0,0,0-4.793.668c-.066-.01-.13-.015-.145.075l.024-.024a6.953,6.953,0,0,0-1.814.416,20.4,20.4,0,0,0-5.368,2.3c-.132.087-.329.128-.349.381l1.3.655a12.867,12.867,0,0,1,2.085,1.606c.076.087.134.1.251,0a4.69,4.69,0,0,1,1.324-.658,23.21,23.21,0,0,1,4.6-1.3c.219-.038.461-.042.6-.315A.523.523,0,0,0,330,135.2a12.766,12.766,0,0,0-2.481.436,23.455,23.455,0,0,0-3.766,1.374c-.14.071-.349.248-.451.047s.163-.261.293-.341a15.818,15.818,0,0,1,6.84-2.4,1.276,1.276,0,0,0,.784-.261c1.348-1.249,3.074-1.595,4.775-2,.121-.029.261-.068.324.139-.159.189-.412.2-.627.261a13.2,13.2,0,0,0-2.5,1.05,3.729,3.729,0,0,0-1.145.937,1.741,1.741,0,0,0,.174,2.771,6.415,6.415,0,0,0,.758.6,10.837,10.837,0,0,0,1.825.977q2.365,1.056,4.728,2.116a.746.746,0,0,0,.553.11,8.848,8.848,0,0,0,1.3-.39l2.377-.564a1.048,1.048,0,0,0,.128-.01,31.647,31.647,0,0,1,6.907-.729c1.18.033,2.36.078,3.54.118.382.055.767.094,1.145.167.7.138.858.489.529,1.15a9.983,9.983,0,0,1-1.248.527,11.493,11.493,0,0,0-6.4,5.911,1.046,1.046,0,0,0,.079,1.174,20.086,20.086,0,0,1,2.649,5.518,19.808,19.808,0,0,1,.57,5.194,29.45,29.45,0,0,1-.551,5.855,57.625,57.625,0,0,1-1.174,6.027,77.462,77.462,0,0,1-2.8,8.267c-.384.917-.912,1.763-1.259,2.7a29.678,29.678,0,0,1-2.153,4.487,38.756,38.756,0,0,1-6.321,8.569c-.087.083-.22.144-.18.354a41.861,41.861,0,0,0,5.065-.42,4.716,4.716,0,0,0,1.143-.127,15.617,15.617,0,0,0,2.6-.376,16.4,16.4,0,0,0,3.237-.663,11.8,11.8,0,0,0,2.245-.571.459.459,0,0,0,.3-.226,14.617,14.617,0,0,1,1.149-1.558,30.042,30.042,0,0,0,2.9-5.909,35.216,35.216,0,0,0,1.666-5.968,69.416,69.416,0,0,0,1.5-10.675c.166-2.8.116-5.6.087-8.407a1.381,1.381,0,0,0-.117-.876,5.27,5.27,0,0,0-.1-1.021.222.222,0,0,1,.166-.245.219.219,0,0,1,.218.108,2.769,2.769,0,0,1,.467,1.046c.189.751.219,1.528.349,2.288-.05.233-.12.467.087.668l.013.248a1.8,1.8,0,0,0-.031.706c.022.862.148,1.718.113,2.584-.062,1.594-.124,3.188-.213,4.782a50.551,50.551,0,0,1-.741,5.965,56.291,56.291,0,0,1-2.539,9.951,28.45,28.45,0,0,1-2.387,5.088.651.651,0,0,0-.163.523,13.274,13.274,0,0,0,1.518-.648,15.2,15.2,0,0,0,2.963-1.275,11.359,11.359,0,0,0,1.971-1.067,3.06,3.06,0,0,0,1.329-.972,11.077,11.077,0,0,0,1.638-3.061,57.243,57.243,0,0,0,2.728-10.414c.367-1.9.473-3.843.673-5.769.193.078.221.24.224.423a43.155,43.155,0,0,1-.208,5.49c-.185,1.65-.529,3.273-.849,4.9a28.292,28.292,0,0,1-2.043,6.92c-.016.033,0,.087,0,.126-.059,0-.116.008-.051.087.018-.027.036-.055.053-.083a6.133,6.133,0,0,0,1.556-1.353c.077-.046.145-.1.138-.2v.015a3.115,3.115,0,0,0,.9-.784,15.507,15.507,0,0,0,1.968-2.172.167.167,0,0,0,.122-.165v.007c.189-.087.27-.272.385-.424a21.786,21.786,0,0,0,3.064-6.732,2.391,2.391,0,0,0,.063-.448c.279-2.334.61-4.661.807-7a51.843,51.843,0,0,0,.22-9.238,28.828,28.828,0,0,0-2.071-9.032,40.685,40.685,0,0,0-3.247-6.013.25.25,0,0,0-.136-.207l.012-.031-.026-.02a.145.145,0,0,0-.117-.15" transform="translate(-292.499 -119.936)" fill="#040303"/>
    <path id="Path_7188" data-name="Path 7188" d="M321.77,182.99l-.209-1.1a1.58,1.58,0,0,1,.576-1.558,38.24,38.24,0,0,0,6.077-8.262l.005-.009a28.462,28.462,0,0,0,2.057-4.286,15.839,15.839,0,0,1,.748-1.632c.194-.383.377-.744.529-1.108a76.352,76.352,0,0,0,2.748-8.129,34.542,34.542,0,0,0,.859-4.206c.089-.551.182-1.121.284-1.686a28.01,28.01,0,0,0,.53-5.595,15.58,15.58,0,0,0-3-10.016,2.338,2.338,0,0,1-.175-2.452,12.576,12.576,0,0,1,5.738-5.944c-.713-.025-1.441-.049-2.157-.07a30.477,30.477,0,0,0-6.621.706l-.071.012-.116.013-2.131.505a4.993,4.993,0,0,1-.934.289c-.142.033-.276.064-.38.1l-.026.008a1.943,1.943,0,0,1-1.445-.147l-.039-.018q-2.357-1.057-4.723-2.114a12.033,12.033,0,0,1-2.033-1.093,7.733,7.733,0,0,1-.906-.722l-.014-.013a4.093,4.093,0,0,1-.98-1.349c-.108.026-.2.04-.267.051l-.053.008A21.94,21.94,0,0,0,311.3,124.4l-.237.093a2.9,2.9,0,0,0-.731.353l-.009.008a1.446,1.446,0,0,1-2.067-.152,5.8,5.8,0,0,0-1.132-.893c-.215-.144-.435-.292-.657-.455l-1.983-1,.069-.876a1.652,1.652,0,0,1,.949-1.381l0,0a20.713,20.713,0,0,1,5.424-2.359l.314-.1a8.991,8.991,0,0,1,1.722-.425,1.446,1.446,0,0,1,.4-.082,37.727,37.727,0,0,1,4.659-.646l.154-.015a51.823,51.823,0,0,1,6.223-.267c.525.014,1.044.039,1.594.066l.792.038,4.4.2-.606.358q.446-.013.895-.01a34.177,34.177,0,0,1,13.171,2.551,16.571,16.571,0,0,1,3.307,1.828,23.3,23.3,0,0,1,6.3,6.79l.03.049.026.051.014.028a1.989,1.989,0,0,1,.25.377l.033.045.564.433-.128.319a42.132,42.132,0,0,1,3.115,5.841,30.1,30.1,0,0,1,2.174,9.431,52.971,52.971,0,0,1-.217,9.441l0,.029c-.144,1.713-.36,3.432-.57,5.094-.079.628-.161,1.276-.237,1.913a3.7,3.7,0,0,1-.094.64l-.027.1a22.922,22.922,0,0,1-3.267,7.122c-.013.017-.024.035-.036.053a2.4,2.4,0,0,1-.368.45,1.469,1.469,0,0,1-.235.253,16.841,16.841,0,0,1-1.939,2.121,4.793,4.793,0,0,1-.855.8,1.6,1.6,0,0,1-.275.264c-.076.077-.155.16-.236.247a7.837,7.837,0,0,1-.857.814v.588H350.5l-.656.968-.652-.8a8.242,8.242,0,0,1-.537.732,4.365,4.365,0,0,1-1.722,1.309,12.919,12.919,0,0,1-2.007,1.077,16.535,16.535,0,0,1-3.011,1.306,6.033,6.033,0,0,1-.974.423c-.189.068-.367.132-.527.208l-1.558.734-.139-.816a2.124,2.124,0,0,0-.122.2l-.017.031a1.767,1.767,0,0,1-1.1.855c-.155.046-.311.1-.475.147a9.846,9.846,0,0,1-1.847.448,17.763,17.763,0,0,1-3.243.664,10.232,10.232,0,0,1-1.931.305c-.263.024-.512.047-.754.079-.077.01-.169.028-.267.046a4.26,4.26,0,0,1-1,.1,43.464,43.464,0,0,1-5.078.413Zm8.706-9.606a46.5,46.5,0,0,1-4.623,6.78c.654-.061,1.264-.136,1.858-.227l.17-.026.171.019a2.1,2.1,0,0,0,.424-.055c.121-.023.258-.048.4-.068.3-.039.584-.066.862-.091a7.642,7.642,0,0,0,1.526-.238l.124-.038.13-.013a15.137,15.137,0,0,0,2.979-.61l.134-.042.14-.012a7.1,7.1,0,0,0,1.439-.352l.258-.081a8.494,8.494,0,0,1,.654-.871c.144-.174.279-.339.39-.5a25.531,25.531,0,0,0,2.51-5.053q.124-.3.249-.606a33.1,33.1,0,0,0,1.567-5.608l.031-.141a68.362,68.362,0,0,0,1.47-10.477c.148-2.5.12-5.064.093-7.546l-.008-.78c0-.1.005-.188.009-.266,0,0,0-.009,0-.013l-.16-.224.037-.473a2.268,2.268,0,0,0-.044-.419c-.016-.1-.035-.22-.049-.344a1.529,1.529,0,0,1,1.148-1.67l.073-.018.075-.01a1.521,1.521,0,0,1,1.47.673,4.05,4.05,0,0,1,.656,1.48,12.274,12.274,0,0,1,.253,1.546c.034.287.066.559.111.819l.042.247,0,.022.039.038.054,1.033-.062.164c0,.024,0,.052.005.075.005.077.01.153.012.23.008.308.031.622.055.953a14.858,14.858,0,0,1,.058,1.717c-.061,1.571-.124,3.2-.214,4.8a51.281,51.281,0,0,1-.759,6.12,58.349,58.349,0,0,1-2.6,10.18c-.3.793-.656,1.712-1.1,2.675q.595-.265,1.163-.584l.053-.03.055-.025a10.054,10.054,0,0,0,1.748-.939l.139-.1.159-.06a1.752,1.752,0,0,0,.761-.556l.019-.024a9.985,9.985,0,0,0,1.43-2.711,55.965,55.965,0,0,0,2.659-10.178,41.353,41.353,0,0,0,.51-4.114c.046-.5.093-1.026.147-1.543l.179-1.724,1.608.645a1.665,1.665,0,0,1,1.044,1.617,44.483,44.483,0,0,1-.216,5.657c-.166,1.485-.457,2.949-.738,4.365q-.063.32-.127.639c-.153.779-.315,1.573-.5,2.372q.362-.413.69-.853l.268-.359.1-.029.015-.022c.033-.049.074-.111.126-.179a20.715,20.715,0,0,0,2.843-6.285,1.077,1.077,0,0,0,.02-.163l.008-.1c.079-.659.163-1.327.244-1.973.206-1.636.419-3.327.558-4.986l0-.028a50.225,50.225,0,0,0,.219-8.977,27.705,27.705,0,0,0-1.965-8.629,39.526,39.526,0,0,0-3.09-5.74l-.755-.385.339-.846-.233.143a20.7,20.7,0,0,0-5.6-6.029,13.939,13.939,0,0,0-2.784-1.538l-.009,0a31.613,31.613,0,0,0-12.185-2.349,37.394,37.394,0,0,0-4.047.255l-.253.026-.236-.069a2.345,2.345,0,0,0-.254,0,4.812,4.812,0,0,1-.5,0,1.52,1.52,0,0,1-1.305-.842q-.263-.01-.52-.018-.456-.012-.93-.011l-.453.537a2.034,2.034,0,0,1-1.177.653c-.026.006-.051.011-.076.018a11.9,11.9,0,0,0-2.25.945l-.017.009a2.411,2.411,0,0,0-.744.608c-.3.367-.31.521-.31.522s.033.148.368.47a5.117,5.117,0,0,0,.6.473l.013.009a9.707,9.707,0,0,0,1.607.854q2.334,1.043,4.66,2.086c.1-.027.2-.05.3-.072a2.5,2.5,0,0,0,.49-.144l.143-.074,2.674-.634h.112a32.627,32.627,0,0,1,7.12-.739c.857.024,1.726.054,2.566.084l.983.034.071,0,.07.01.346.047c.277.036.564.074.862.131a2.064,2.064,0,0,1,1.57,1.073,2.119,2.119,0,0,1-.12,1.944l-.176.354-.343.2a7.06,7.06,0,0,1-1.073.476c-.112.042-.224.084-.334.128a10.169,10.169,0,0,0-5.686,5.208,21.235,21.235,0,0,1,2.778,5.82,20.9,20.9,0,0,1,.622,5.532,30.523,30.523,0,0,1-.571,6.114c-.1.542-.188,1.1-.276,1.64a37.04,37.04,0,0,1-.93,4.522,78.591,78.591,0,0,1-2.846,8.405c-.189.45-.4.871-.608,1.278a13.617,13.617,0,0,0-.632,1.368l0,.009a31.082,31.082,0,0,1-2.245,4.68m23.5-5.91a1.139,1.139,0,0,0-.8,1.093l1.3-.02Zm-.044-.095a.787.787,0,0,0-.243.173l.287-.079Zm-18.8-33.251h0m17.689-3.711a1.167,1.167,0,0,0,.135.066l.055-.187-.066-.04Zm-.4-.481,0,0,.328-.5-.5.117a1.16,1.16,0,0,0,.077.3.624.624,0,0,0,.077.071l-.011-.165a1.05,1.05,0,0,0,.027.177m-.188-.377-.054.013a.625.625,0,0,0,.047.133Zm-.124-.35-.164.049a.179.179,0,0,0,.011.027Zm.513-.154.3.121.173-.264Zm-44.283-7.57.231.155.189.127a18.39,18.39,0,0,1,2.972-1.452l.016-.094-.021.007a27.652,27.652,0,0,0-3.385,1.256" transform="translate(-278.121 -106.243)"/>
    <path id="Path_7189" data-name="Path 7189" d="M479.048,271.326c.087-.322.18-.645.307-1.1-.647.314-1.177.574-1.713.829a.374.374,0,0,0-.214.425c.017.174.045.34.07.51a1.8,1.8,0,0,0,.273,1.01.728.728,0,0,0,.426-.166c.3-.162.705-.27.849-.523s.013-.653,0-.988" transform="translate(-435.993 -246.856)" fill="#040303"/>
    <path id="Path_7190" data-name="Path 7190" d="M464.108,248.718q-.057,0-.116,0l-.669-.044-.355-.569a3.1,3.1,0,0,1-.472-1.61l0-.031c-.02-.131-.042-.28-.058-.441a1.673,1.673,0,0,1,.957-1.737c.377-.18.747-.359,1.175-.568l3.137-1.522-.783,2.8-.123.437c-.043.152-.082.29-.119.423l0,.031a2.28,2.28,0,0,1-.194,1.488,2.332,2.332,0,0,1-1.182.941c-.062.028-.126.056-.166.077l-.02.012a1.833,1.833,0,0,1-1.014.321" transform="translate(-422.3 -221.262)"/>
    <path id="Path_7191" data-name="Path 7191" d="M153.146,577.708c.275-.049.552-.087.824-.146a19.647,19.647,0,0,0,3.672-1.387,17.915,17.915,0,0,1,3.387-1.227c.568-.12.571-.122.641-.689a3.088,3.088,0,0,0,.015-.45c-.015-.56-.017-.56-.586-.708-.312-.082-.631-.145-.932-.255a.427.427,0,0,0-.623.237,2.964,2.964,0,0,1-.942,1.082,1.381,1.381,0,0,1,.155-.67c.327-1.046.334-1.046-.75-1.289a.166.166,0,0,0-.063.011c-.328-.153-.665-.29-.982-.464s-.4-.035-.47.254a10.63,10.63,0,0,1-1.116,2.73,5.053,5.053,0,0,1-1.187,1.656.411.411,0,0,1,.045-.371,14.577,14.577,0,0,0,1.075-3.648c.29-1.232.254-1.243-.885-1.877-.074-.041-.154-.072-.232-.108l-3.18-1.923a16.379,16.379,0,0,1-.569,2.374,10.772,10.772,0,0,1-1.162,2.7c-.277-.261-.138-.564-.059-.838a22.145,22.145,0,0,0,.795-4.439c.021-.278.082-.574-.221-.753a5.135,5.135,0,0,0-1.04-.635,6.609,6.609,0,0,0-1.143-.94c-.383-.31-.742-.688-1.127-1.068a1.587,1.587,0,0,0-.083.708,20.741,20.741,0,0,1-.518,4.288,14.454,14.454,0,0,1-2.187,5.2c-.375-.087-.42-.3-.256-.621a17.142,17.142,0,0,0,1.71-7.423,21.625,21.625,0,0,0-.291-3.86.89.89,0,0,0-.138-.425c-.436-.562-.74-1.211-1.212-1.743l-1.371-2.527c-.329-1.065-.912-2.01-1.347-3.065a.6.6,0,0,0-.107.477c-.037.947-.05,1.9-.1,2.843-.121,2.106-.23,4.215-.406,6.318a33.514,33.514,0,0,1-.508,4.035,11.361,11.361,0,0,1-1.009,3.258,3.36,3.36,0,0,1-2.588,1.925c-.06.008-.174-.02-.166.136.824.359,1.656.709,2.512.991a11.939,11.939,0,0,0,1.639.581,62.307,62.307,0,0,0,7.881,1.678,14.989,14.989,0,0,0,4.943.1.235.235,0,0,0,.266-.036" transform="translate(-124.237 -507.174)" fill="#040303"/>
    <path id="Path_7192" data-name="Path 7192" d="M137.233,553.236a20.908,20.908,0,0,1-3.186-.282,63.617,63.617,0,0,1-8.037-1.711,13.3,13.3,0,0,1-1.752-.618c-.929-.309-1.81-.685-2.566-1.015l-.738-.322-.045-.8a1.432,1.432,0,0,1,.368-1.061,1.408,1.408,0,0,1,.983-.451,2.028,2.028,0,0,0,1.563-1.253,9.785,9.785,0,0,0,.844-2.746l.03-.147a31.937,31.937,0,0,0,.485-3.878c.147-1.761.25-3.563.348-5.307q.028-.489.056-.977c.033-.583.051-1.186.068-1.769.01-.34.02-.679.033-1.019v0a1.782,1.782,0,0,1,.418-1.3l1.387-1.634.818,1.981c.155.375.333.741.522,1.128a14.935,14.935,0,0,1,.826,1.922l1.245,2.3a9.322,9.322,0,0,1,.717,1.025c.152.241.3.468.446.663l.037.048.033.051a2.2,2.2,0,0,1,.268.609l1.31,1.293.244.243c.276.276.537.537.787.739.09.073.2.15.315.232a5.7,5.7,0,0,1,.778.63,4.431,4.431,0,0,1,.688.435c.092.067.179.131.246.171a1.725,1.725,0,0,1,.61.588l3.727,2.254c.068.03.159.07.259.125l.025.014a3.645,3.645,0,0,1,1.358,1.032,1.663,1.663,0,0,1,1.149.208c.172.094.369.183.578.276l.086.039.039.009a3.085,3.085,0,0,1,1.428.568,1.955,1.955,0,0,1,.9.122,5.115,5.115,0,0,0,.522.145c.1.024.193.047.29.072a2.013,2.013,0,0,1,1.178.632,1.956,1.956,0,0,1,.383,1.3,4.412,4.412,0,0,1-.021.63l0,.024a2.019,2.019,0,0,1-.475,1.242,2.059,2.059,0,0,1-1.193.565,15.075,15.075,0,0,0-2.846,1.021l-.293.127c-.241.1-.478.209-.715.315a15.759,15.759,0,0,1-3.2,1.151c-.214.046-.416.079-.613.112l-.043.007a1.476,1.476,0,0,1-.71.111,12.652,12.652,0,0,1-1.954.145m-6.121-3.45c1.053.21,2.16.4,3.332.584a13.963,13.963,0,0,0,4.516.108l.215-.038a1.725,1.725,0,0,1,.234-1.05,9.8,9.8,0,0,0,.757-2.483c.057-.265.115-.539.18-.813.016-.067.039-.165.06-.262l-.286-.161-.015-.008-.056-.025-.095-.042-.067-.031-1.68-1.016q-.1.357-.211.709a11.882,11.882,0,0,1-1.314,3.021l-.856,1.3-1.134-1.07a1.912,1.912,0,0,1-.44-2.078c.007-.024.015-.047.021-.07a20.883,20.883,0,0,0,.734-4l-.028-.021a2.072,2.072,0,0,0-.3-.2l-.386-.12-.251-.317a1.011,1.011,0,0,0-.136-.135c-.089.791-.231,1.64-.429,2.578a15.68,15.68,0,0,1-2.363,5.638m12.517-2.063a11.942,11.942,0,0,1-.7,1.493q.253-.112.507-.222l.273-.118-.083-.457a1.9,1.9,0,0,1,0-.7m-18.39.478.012.005a10.693,10.693,0,0,0,1.46.518l.017,0q.817.236,1.68.452a1.79,1.79,0,0,1,.179-1.31A15.668,15.668,0,0,0,130.154,541a20.645,20.645,0,0,0-.274-3.6c-.176-.241-.326-.48-.473-.712a6.3,6.3,0,0,0-.565-.806l-.1-.113-.647-1.193c-.087,1.513-.18,3.061-.308,4.591a35.053,35.053,0,0,1-.531,4.191l-.03.146a11.9,11.9,0,0,1-1.115,3.478,5.972,5.972,0,0,1-.873,1.218m-3.016-1.223h0m13.214-4.324,0,0,0,0" transform="translate(-110.545 -481.195)"/>
    <path id="Path_7193" data-name="Path 7193" d="M389.236,217.444c.118.048.234.1.355.143a12.6,12.6,0,0,1,3.578,1.888c.373.294.461.282.784-.07.112-.122.2-.366.377-.287.3.129.491-.047.71-.145a15.1,15.1,0,0,1,2.615-.92,1.206,1.206,0,0,0,.635-.239c-.064-.136-.174-.158-.268-.2-1.891-.871-3.843-1.617-5.665-2.646a.858.858,0,0,0-1.015-.329,12.835,12.835,0,0,0-3.042,1.041,12.651,12.651,0,0,0-2.139,1.225,13.381,13.381,0,0,1,3.076.539" transform="translate(-352.683 -196.074)" fill="#040303"/>
    <path id="Path_7194" data-name="Path 7194" d="M352.606,207.3a1.971,1.971,0,0,1-1.208-.488,11.25,11.25,0,0,0-3.214-1.686c-.111-.04-.21-.082-.3-.118l-.006,0c-.214-.049-.424-.1-.628-.151a8.269,8.269,0,0,0-2.047-.331l-3.917.018,3.121-2.367a12.3,12.3,0,0,1,2.091-1.228l.253-.125.01,0a14.15,14.15,0,0,1,3.352-1.147,2.137,2.137,0,0,1,2.133.588c1.135.624,2.318,1.139,3.566,1.683.583.254,1.185.517,1.778.79l.007,0a1.642,1.642,0,0,1,.91.831l.393.828-.645.651a2.138,2.138,0,0,1-1.178.574l-.077.016a13.823,13.823,0,0,0-2.378.838l-.014.007-.051.027a2.193,2.193,0,0,1-.771.263,1.722,1.722,0,0,1-1.181.532m-3.525-4.63a14.589,14.589,0,0,1,3.4,1.692,1.412,1.412,0,0,1,1-.242l.059-.027q.166-.076.334-.149c-1.043-.461-2.1-.951-3.12-1.528l-.269-.152a11.588,11.588,0,0,0-1.4.406" transform="translate(-311.721 -182.387)"/>
    <path id="Path_7195" data-name="Path 7195" d="M416.539,747.791a.964.964,0,0,0-.558.132,17.249,17.249,0,0,1-6.46,1.074c-.8-.006-.7-.187-.9.715a.793.793,0,0,0-.009.129c-.017.013-.045.024-.049.041a10.5,10.5,0,0,1-1.948,4.17,10.55,10.55,0,0,0-1.252,1.957,2,2,0,0,0-.229,1.059c.054.455.229.833.75.917a2.256,2.256,0,0,0,1.3.094,7.617,7.617,0,0,0,3.021-.807,16.761,16.761,0,0,0,3.775-2.572,2.367,2.367,0,0,0,.773-1.293,24.027,24.027,0,0,1,1.754-5.316.312.312,0,0,0,.028-.306c.046.017.069.005.064-.037a.074.074,0,0,0-.037,0c-.085.013.036-.021-.019.045" transform="translate(-369.993 -682.755)" fill="#040303"/>
    <path id="Path_7196" data-name="Path 7196" d="M392.988,733.963a3.553,3.553,0,0,1-1.156-.194,2.157,2.157,0,0,1-1.7-2.025,3.229,3.229,0,0,1,.334-1.747,11.256,11.256,0,0,1,1.353-2.145l.044-.059a9.184,9.184,0,0,0,1.716-3.655,1.327,1.327,0,0,1,.071-.23l.029-.129a2.122,2.122,0,0,1,.492-1.121,1.66,1.66,0,0,1,1.386-.456c.082,0,.168.009.272.01a16.634,16.634,0,0,0,5.087-.675l-.934-1.7,2.989,1.129a1.382,1.382,0,0,1,.244.039l.886.225.093.909a1.375,1.375,0,0,1-.047.527,1.873,1.873,0,0,1-.172.525,22.364,22.364,0,0,0-1.652,5.026,3.692,3.692,0,0,1-1.184,1.988,18.069,18.069,0,0,1-4.058,2.762,8.859,8.859,0,0,1-3.431.936,3.56,3.56,0,0,1-.665.063m-.232-2.644a.947.947,0,0,0,.441.006l.106-.023.108-.006a6.273,6.273,0,0,0,2.5-.668,15.476,15.476,0,0,0,3.488-2.375l.026-.023a1.066,1.066,0,0,0,.346-.579,31.286,31.286,0,0,1,.923-3.341,19.79,19.79,0,0,1-4.469.518l0,.162-.194.154a11.907,11.907,0,0,1-2.071,4.213l-.044.059a9.151,9.151,0,0,0-1.063,1.65,2.484,2.484,0,0,0-.1.254" transform="translate(-356.296 -657.278)"/>
    <path id="Path_7197" data-name="Path 7197" d="M198.991,246.461c.717-.394,1.424-.809,2.157-1.172a.873.873,0,0,0,.546-.778,23.563,23.563,0,0,1,1.527-6.069,24.28,24.28,0,0,1,2.522-4.731,2.146,2.146,0,0,0,.353-1.586,5.519,5.519,0,0,0-.412-1.911c-.615.993-1.238,1.875-1.735,2.823a28.315,28.315,0,0,0-2.73,7.042c-.037.174,0,.4-.27.461a1.682,1.682,0,0,1,.055-.959,30.321,30.321,0,0,1,4.218-10.027c.024-.036.048-.071.075-.105a.423.423,0,0,0,.063-.477,13.3,13.3,0,0,0-.919-1.989,6.838,6.838,0,0,0-.615-1.332,1.7,1.7,0,0,0-.2.165,23.3,23.3,0,0,0-2.615,4.073,28.062,28.062,0,0,0-2.52,9.573c-.305,2.5-.473,5.021-.7,7.533-.011.13-.12.289.071.422Z" transform="translate(-180.692 -206.161)" fill="#040303"/>
    <path id="Path_7198" data-name="Path 7198" d="M184.266,229.067l-.823-.569a1.532,1.532,0,0,1-.624-1.683c.062-.7.121-1.414.178-2.1.146-1.769.3-3.6.517-5.4a29.374,29.374,0,0,1,2.654-10.011A24.619,24.619,0,0,1,188.925,205l.054-.068.063-.06a3,3,0,0,1,.357-.292l1.2-.836.754,1.391a8.011,8.011,0,0,1,.607,1.3A11.057,11.057,0,0,1,192.7,208c.059.145.117.289.178.433a1.729,1.729,0,0,1,.153.9l.149.3a5.239,5.239,0,0,1,.5,1.941c.013.127.026.247.041.357a3.434,3.434,0,0,1-.564,2.522,22.911,22.911,0,0,0-2.384,4.468,22.134,22.134,0,0,0-1.446,5.734,2.174,2.174,0,0,1-1.261,1.811c-.5.246-.976.515-1.484.8l-.513.286Zm-1.454-2.183v0m3.166-6.113c-.143,1.346-.257,2.706-.367,4.034.366-.2.741-.409,1.125-.6a22.347,22.347,0,0,1,.382-2.289l-.736.154-.358-1.126q-.027-.086-.047-.169m.928,3.345h0m2.984-16.012a21.99,21.99,0,0,0-1.391,2.378,25.018,25.018,0,0,0-2.252,8.067,30.87,30.87,0,0,1,4.054-9.491l-.029-.072c-.126-.31-.247-.608-.382-.882" transform="translate(-167.016 -186.167)"/>
    <path id="Path_7199" data-name="Path 7199" d="M481.21,314.008a6.931,6.931,0,0,0,.751,3.231,2.938,2.938,0,0,0,1.415,1.369,4.51,4.51,0,0,0,5.5-1.416,6.165,6.165,0,0,0,.415-6.5,4.311,4.311,0,0,0-3.454-2.527,2.488,2.488,0,0,0-1.81.3,5.608,5.608,0,0,0-1.83,1.889,7.892,7.892,0,0,0-.984,3.654" transform="translate(-439.449 -281.44)" fill="#040303"/>
    <path id="Path_7200" data-name="Path 7200" d="M471.6,306.634a6.056,6.056,0,0,1-2.456-.514,4.262,4.262,0,0,1-2.046-1.967,8.223,8.223,0,0,1-.894-3.813v-.062a9.206,9.206,0,0,1,1.154-4.251l.01-.018a6.947,6.947,0,0,1,2.247-2.324,3.764,3.764,0,0,1,2.721-.5,5.583,5.583,0,0,1,4.441,3.276,7.422,7.422,0,0,1-.533,7.8,5.562,5.562,0,0,1-4.645,2.373m-2.781-6.29a5.58,5.58,0,0,0,.6,2.606l.014.027a1.635,1.635,0,0,0,.785.76,3.226,3.226,0,0,0,3.884-.976,4.848,4.848,0,0,0,.3-5.21,3,3,0,0,0-2.464-1.779,1.18,1.18,0,0,0-.89.1l-.021.013a4.322,4.322,0,0,0-1.4,1.44,6.523,6.523,0,0,0-.808,3.017" transform="translate(-425.754 -267.758)"/>
    <path id="Path_7201" data-name="Path 7201" d="M541.665,727.642a.45.45,0,0,0-.174-.023,20.706,20.706,0,0,0-2.254.805,1.132,1.132,0,0,0-.491.5,13.861,13.861,0,0,0-1.133,2.253c-.49,1.171-.534.824.436,1.583.444.349.458.333.768-.125,1.029-1.523,1.868-3.157,2.8-4.737a.289.289,0,0,0,.047-.254" transform="translate(-490.627 -664.383)" fill="#040303"/>
    <path id="Path_7202" data-name="Path 7202" d="M524.751,720.613a1.944,1.944,0,0,1-1.21-.522c-.142-.111-.261-.2-.366-.271a1.873,1.873,0,0,1-.874-1.135,2.06,2.06,0,0,1,.248-1.344c.045-.1.1-.22.158-.364a15.021,15.021,0,0,1,1.246-2.466l.015-.023a2.306,2.306,0,0,1,1.062-.961,22.092,22.092,0,0,1,2.392-.855l.137-.04.143-.01a1.747,1.747,0,0,1,.682.089l.648.219.189.657a1.6,1.6,0,0,1-.2,1.316c-.293.5-.583,1.012-.865,1.51-.608,1.077-1.237,2.191-1.957,3.257a1.8,1.8,0,0,1-1.219.925,1.483,1.483,0,0,1-.23.018" transform="translate(-476.927 -650.689)"/>
    <path id="Path_7203" data-name="Path 7203" d="M374.829,194.175a6.781,6.781,0,0,1-.447-.808c-.1-.27-.261-.276-.5-.234a21.11,21.11,0,0,0-5.178,1.594c-.394.182-.386.194-.2.559.144.289.283.581.425.871.187.386.193.395.555.184a18.571,18.571,0,0,1,3.632-1.683c.55-.18,1.116-.315,1.718-.484" transform="translate(-336.45 -176.461)" fill="#040303"/>
    <path id="Path_7204" data-name="Path 7204" d="M355.473,184.116a1.417,1.417,0,0,1-.416-.063,1.679,1.679,0,0,1-1.011-1l-.161-.332c-.086-.176-.171-.353-.258-.529a1.663,1.663,0,0,1-.177-1.362,1.689,1.689,0,0,1,1-.965,22.443,22.443,0,0,1,5.505-1.7,1.648,1.648,0,0,1,1.943,1.054,2.732,2.732,0,0,0,.175.312c.06.1.124.2.19.321l.822,1.453-1.608.449c-.2.055-.391.107-.582.158-.382.1-.742.2-1.082.309a17.07,17.07,0,0,0-3.378,1.569,1.888,1.888,0,0,1-.965.319" transform="translate(-322.749 -162.789)"/>
    <path id="Path_7205" data-name="Path 7205" d="M485.232,301.87c-.167.037-.336.066-.5.111-.217.059-.542.02-.583.292-.038.254.282.349.444.509s.3.113.442-.037c.119-.125.254-.233.383-.349.11-.1.282-.162.206-.349s-.228-.173-.39-.177" transform="translate(-442.127 -275.739)" fill="#040303"/>
    <path id="Path_7206" data-name="Path 7206" d="M471.089,290.464a1.58,1.58,0,0,1-1.077-.438l-.027-.018a1.627,1.627,0,0,1-.832-1.656,1.591,1.591,0,0,1,1.516-1.359l.042-.006c.146-.038.278-.065.4-.089l.144-.03.152-.033.156,0-.023,1.064h0l.027-1.064a1.6,1.6,0,0,1,1.57,1,1.515,1.515,0,0,1-.577,1.836l0,0-.1.084c-.071.062-.139.12-.18.163a1.614,1.614,0,0,1-1.165.544h-.024m-1.121-.48h0m.741-1.17a1.062,1.062,0,0,0,.637.6,1.116,1.116,0,0,0,.166-.163l.02-1.1.167.766a1.016,1.016,0,0,0,.04-.168q0-.019.005-.038l-.029-.033.029.033a1.065,1.065,0,0,0-.208-.755v0h0v0l0-.006a1.111,1.111,0,0,0-.46-.092,1.093,1.093,0,0,0-.323.054,1.126,1.126,0,0,0-.038.91m-.325-.695,0,0,0,0m.312-1.127-.012,0,.012,0" transform="translate(-428.427 -262.014)"/>
    <path id="Path_7207" data-name="Path 7207" d="M374.393,160.294c-.134-.763-.164-1.543-.354-2.3a2.776,2.776,0,0,0-.469-1.054.207.207,0,0,0-.386.138,5.322,5.322,0,0,1,.1,1.026.36.36,0,0,0-.12.349c.036,1.645-.115,3.279-.243,4.917-.119,1.509-.444,2.984-.618,4.482-.122,1.046-.391,2.077-.553,3.118a47.287,47.287,0,0,1-1.676,6.978c-.723,2.29-1.6,4.523-2.527,6.735a32.571,32.571,0,0,1-1.563,3.35,35.879,35.879,0,0,1-2.468,4.4,16.544,16.544,0,0,1-3.251.665,1.433,1.433,0,0,1,.284-.65,29.249,29.249,0,0,0,2.119-3.872c.386-.775.8-1.536,1.133-2.337.67-1.6,1.307-3.2,1.883-4.834a66.057,66.057,0,0,0,2.131-6.8c.441-1.865.791-3.747,1.084-5.648.223-1.448.436-2.9.584-4.351.126-1.265.074-2.548.134-3.823a35.039,35.039,0,0,0-.087-4.931c-.04-.436-.125-.852-.182-1.279-.017-.129-.061-.311-.292-.29-.157.324.069.626.078.941a17,17,0,0,1-.174,2.39c-.16,1.389-.312,2.782-.463,4.172-.188,1.743-.594,3.438-.872,5.16a30.777,30.777,0,0,1-1.075,4.331c-.578,1.836-1.154,3.672-1.866,5.462-.639,1.607-1.312,3.2-2,4.785q-.86,1.962-1.811,3.884c-.509,1.027-1.116,2-1.624,3.033a28.355,28.355,0,0,1-2.475,4.263,1.187,1.187,0,0,0-.261.905,41.472,41.472,0,0,1-5.085.421c-.041-.21.1-.272.181-.355a38.9,38.9,0,0,0,6.347-8.6,29.912,29.912,0,0,0,2.162-4.5c.349-.937.878-1.787,1.264-2.707a77.513,77.513,0,0,0,2.809-8.3,58.144,58.144,0,0,0,1.178-6.053,29.722,29.722,0,0,0,.553-5.878,19.9,19.9,0,0,0-.573-5.216,20.138,20.138,0,0,0-2.661-5.541,1.053,1.053,0,0,1-.079-1.179,11.546,11.546,0,0,1,6.426-5.936,10.5,10.5,0,0,0,1.253-.529.739.739,0,0,0,.3.485,32.137,32.137,0,0,1,2.393,2.643,29.988,29.988,0,0,1,3.274,4.9,28.188,28.188,0,0,1,2.382,5.743,21.054,21.054,0,0,1,.79,3.86,12.728,12.728,0,0,1,.121,1.352c0,.159.039.349.213.349.218.006.174-.211.174-.349-.022-.928.006-1.854-.1-2.789a23.184,23.184,0,0,0-.5-2.927,26.428,26.428,0,0,0-2.572-6.63,27.9,27.9,0,0,0-3.573-5.079,30.015,30.015,0,0,0-4.38-4.048,23.266,23.266,0,0,0-8.97-4.214c-.3-.064-.61-.081-.926-.121.015.211.15.194.241.227a32.717,32.717,0,0,1,5.091,2.266A28.27,28.27,0,0,1,368.6,137.9c-1.185-.041-2.37-.087-3.555-.119a31.714,31.714,0,0,0-6.935.732,1.053,1.053,0,0,1-.128.01.766.766,0,0,0-.436-.356c-1.643-.77-3.408-1.241-5.029-2.059a8.582,8.582,0,0,1-2.644-1.6.892.892,0,0,1-.193-1.008,2.56,2.56,0,0,1,.929-1.142c.321-.246.652-.478.992-.727a.458.458,0,0,0-.458-.061,9.951,9.951,0,0,0-2.8,1.319,1.133,1.133,0,0,0-.429.706,2.1,2.1,0,0,0,1,2.227,37.883,37.883,0,0,0,4.732,2.407,10.548,10.548,0,0,1,1.945.861,8.89,8.89,0,0,1-1.3.392.74.74,0,0,1-.556-.111q-2.371-1.067-4.747-2.125a10.955,10.955,0,0,1-1.83-.98,6.4,6.4,0,0,1-.762-.606,1.748,1.748,0,0,1-.174-2.783,3.757,3.757,0,0,1,1.149-.941,13.3,13.3,0,0,1,2.513-1.055c.216-.065.471-.073.63-.261-.063-.208-.2-.169-.325-.14-1.708.405-3.442.753-4.793,2a1.247,1.247,0,0,1-.784.261,15.9,15.9,0,0,0-6.867,2.41c-.131.081-.4.144-.3.342s.313.024.454-.047a23.449,23.449,0,0,1,3.781-1.38,12.807,12.807,0,0,1,2.492-.436.523.523,0,0,1,.393.068c-.142.275-.385.278-.61.316a23.356,23.356,0,0,0-4.619,1.307,4.706,4.706,0,0,0-1.329.661c-.118.1-.174.087-.252,0a12.975,12.975,0,0,0-2.092-1.613c.024-.23.214-.305.376-.41a47.5,47.5,0,0,1,5.508-3.137c.131-.063.308-.049.377-.22l-.024.024.146-.075a36.563,36.563,0,0,1,4.811-.67,49.854,49.854,0,0,1,6.089-.267c.754.019,1.507.064,2.371.1-.268.158-.447.254-.616.367a.216.216,0,0,0-.109.22c.024.124.124.165.238.174a4.589,4.589,0,0,1,1.031.047.087.087,0,0,1,0,.071c-.169.071-.476,0-.471.246s.3.174.477.215c.021.005.043.006.065.01,2.156.358,4.3.779,6.436,1.24a18.43,18.43,0,0,1,8.032,4.067c.9.753,1.753,1.552,2.581,2.378a28.194,28.194,0,0,1,6.372,9.48,16.958,16.958,0,0,1,1.338,4.93c.277,3.388.523,6.78.784,10.17.009.119-.028.271.208.324a2.322,2.322,0,0,0,.329-.939c.063-.406.123-.813.184-1.22.234-.042.3-.215.34-.418a10.8,10.8,0,0,0,.247-1.989,53.014,53.014,0,0,0-.128-5.775c-.087-.924-.136-1.854-.288-2.767a18.845,18.845,0,0,0-1.538-4.669,29.763,29.763,0,0,0-3.747-5.824,29.13,29.13,0,0,0-4.927-4.775,23.784,23.784,0,0,0-3.573-2.221,14.257,14.257,0,0,0-3.74-1.434,1.582,1.582,0,0,0-1.046-.073l-4.044-.716a.761.761,0,0,1,.63-.057,13.275,13.275,0,0,0,1.989.213,41.533,41.533,0,0,1,5.2.943,27.043,27.043,0,0,1,5.189,1.8,23.471,23.471,0,0,1,2.827,1.822,27.62,27.62,0,0,1,3.353,2.74c.817.771,1.591,1.586,2.389,2.377.163.161.29.4.58.356l-.013-.008c-.016.2-.021.4.269.4l-.019-.008.117.149.026.02-.012.031c.046.069.091.139.137.207a40.9,40.9,0,0,1,3.26,6.039,28.886,28.886,0,0,1,2.077,9.069,52,52,0,0,1-.221,9.275c-.2,2.353-.53,4.69-.811,7.033a2.393,2.393,0,0,1-.063.45,21.885,21.885,0,0,1-3.077,6.759c-.116.153-.2.34-.387.426a2.467,2.467,0,0,1,.18-1.014,31.588,31.588,0,0,0,.976-4.347c.166-1.41.391-2.812.565-4.222.187-1.522.281-3.05.343-4.574.112-2.789-.1-5.578-.121-8.366,0-.075.058-.2-.13-.227v.327c.009,2.033.02,4.066-.132,6.1a1.992,1.992,0,0,1-.025.323c-.174.738-.1,1.5-.219,2.248-.144.935-.166,1.889-.308,2.825-.213,1.4-.478,2.8-.731,4.2a42.831,42.831,0,0,1-1.43,5.7,25.176,25.176,0,0,1-1.046,2.789c-.08.174-.261.387-.016.587a3.107,3.107,0,0,1-.9.79,1,1,0,0,1,.045-.512,30.007,30.007,0,0,0,1.421-6.04,25.024,25.024,0,0,0,.349-3.667,14.43,14.43,0,0,0,.108-1.549,33.771,33.771,0,0,1-.254-3.812c0-.559-.08-1.119-.137-1.677a.514.514,0,0,0-.314-.45,6.142,6.142,0,0,0-.037,1.322c-.2,1.934-.307,3.883-.675,5.793a57.086,57.086,0,0,1-2.739,10.458,11.08,11.08,0,0,1-1.644,3.073,3.067,3.067,0,0,1-1.335.976c-.019-.533.349-.922.523-1.381a39.637,39.637,0,0,0,1.621-5.392,53.292,53.292,0,0,0,1-6.182c.058-.56.046-1.124.128-1.676.174-1.2.133-2.411.219-3.616a21.317,21.317,0,0,0-.075-2.717c-.081-1.443-.116-2.888-.289-4.325-.1-.855-.146-1.72-.3-2.565-.072-.393.037-.857-.332-1.2a5.411,5.411,0,0,0,.005.772,27.049,27.049,0,0,1,.364,3.987c0,1.6.014,3.208-.01,4.812-.011.776-.1,1.55-.15,2.325-.064,1.073-.235,2.139-.36,3.207q-.233,1.9-.6,3.77c-.307,1.569-.669,3.122-1.123,4.652a28.035,28.035,0,0,1-2.4,5.874,1.568,1.568,0,0,0-.207.733,15.2,15.2,0,0,1-2.974,1.28c.093-.174.18-.349.281-.51a17.553,17.553,0,0,0,1.38-2.791,68.44,68.44,0,0,0,2.5-8.169,32.975,32.975,0,0,0,.578-3.573,25.83,25.83,0,0,0,.315-3.408,72.789,72.789,0,0,0-.1-7.91q-.136-1.252-.279-2.5a.237.237,0,0,0-.211-.212c-.005-.083-.01-.166-.014-.249.169-.245.2-.475-.085-.668" transform="translate(-306.593 -118.49)" fill="#d8b660"/>
    <path id="Path_7208" data-name="Path 7208" d="M226.354,400.5a2.085,2.085,0,0,1,.379.672,7.428,7.428,0,0,0,4.21,3.66c.49.182,1.02.179,1.575.328a4.072,4.072,0,0,0-.118,2.033,5.84,5.84,0,0,0,2.052,3.076,8.205,8.205,0,0,0,.93.706c.227.147.309,0,.289-.227.274-.239.2-.5.028-.746a4.862,4.862,0,0,1-.744-2.108,2.072,2.072,0,0,1,1.014-1.994,12.934,12.934,0,0,1,2.815-.9c.279-.08.6-.045.817-.3.117-.4-.2-.426-.436-.488a18.048,18.048,0,0,0-2.07-.549,1.013,1.013,0,0,1-.22-.1,19.832,19.832,0,0,0,1.98-1.647.33.33,0,0,1,.2.261,6.854,6.854,0,0,0,4,4.021,12.933,12.933,0,0,0,4.515,1.122,12.536,12.536,0,0,0,6.972-1.676,13.189,13.189,0,0,1,2.563-1.245,1.13,1.13,0,0,0,.566.083,1.59,1.59,0,0,1,1.583,1.177c.1.3.057.644.269.909a17.162,17.162,0,0,1-.191,2.65,48.782,48.782,0,0,1-1.631,8.976c-.474,1.594-.987,3.176-1.489,4.762a2.77,2.77,0,0,1-.2.4.722.722,0,0,0-.536.174c-1.865,1.143-3.754,2.249-5.7,3.233a21.519,21.519,0,0,1-8.366,2.6,16.248,16.248,0,0,1-4.453-.122c-.308-.064-.647-.28-.989-.07a38.7,38.7,0,0,1-8.918-5.007,20.149,20.149,0,0,1-4.287-4.574,1.531,1.531,0,0,1-.342-.616c0-.128-.007-.256-.164-.3l.017.024c.016-.13,0-.245-.155-.277l.019.02a.61.61,0,0,0-.019-.383,11.918,11.918,0,0,1-.814-2.854,8.765,8.765,0,0,1-.064-4.1,3.059,3.059,0,0,1,2-2.2c.283-.105.576-.185.862-.284.206-.071.424-.137.4-.427a5.435,5.435,0,0,1-.3-2.4c.146-.055.161-.182.18-.313a9.976,9.976,0,0,1,.535-1.98,18.263,18.263,0,0,1,1.441-3.008m4.88,20.617c-.184.052-.193.2-.215.358a2.722,2.722,0,0,0,.815,2.363,11.221,11.221,0,0,0,5.369,2.991c.2.056.474.261.716.022l.364.087c.065.144.144.229.284.071.55.065,1.1.15,1.651.188a1.507,1.507,0,0,0,1.109-.254l-.81-.221c-.219-.4-.655-.47-1.014-.6a13.046,13.046,0,0,1-3.72-1.937,12.153,12.153,0,0,1-1.673-1.625,3.514,3.514,0,0,1-.565-1.092c-.221-.6.051-.953.7-.984.229-.011.481.08.682-.116.145-.061.386.087.436-.163.04-.2-.144-.3-.292-.379a3.138,3.138,0,0,0-1.229-.37c-1.356-.132-2.378.254-2.6,1.66Zm4.259.261c.036.122.035.174.062.2a13.938,13.938,0,0,0,4.491,2.919,12.089,12.089,0,0,0,6.013.641,8.25,8.25,0,0,0,6.719-4.706,19.754,19.754,0,0,0,1.682-5.37,13.828,13.828,0,0,0,.193-3.43c-.066-.8-.148-1.595-.216-2.393-.039-.468.033-.529.489-.468a.852.852,0,0,1,.6.349,4.726,4.726,0,0,1,.61,1.067c.052.132.062.3.332.343a1.853,1.853,0,0,0,.062-1.817,1.543,1.543,0,0,0-1.58-1.018,4.287,4.287,0,0,0-1.812.452c-.756.377-1.5.784-2.239,1.187-.154.087-.383.143-.342.414.294.141.574-.154.871-.03a1.255,1.255,0,0,1-.4.505,12.4,12.4,0,0,1-4.6,2.973,18.943,18.943,0,0,1-6.233,1.137,23.279,23.279,0,0,1-6.426-.8,8.776,8.776,0,0,1-4.316-2.392.905.905,0,0,0-.1-.087.126.126,0,0,0-.174,0,.135.135,0,0,0-.038.174,2.577,2.577,0,0,0,.61.751,10.458,10.458,0,0,0,3.281,2.067,1.6,1.6,0,0,1,.69.457,16.673,16.673,0,0,1,3.631,7.247c.039.174.128.363.005.544-.667-.174-1.145-.74-1.862-.924Zm23.376-13.094c-.033-.278-.122-.5-.134-.741a2,2,0,0,0-1.449-1.791,2.128,2.128,0,0,0-2.259.548c-.087.1-.2.192-.132.336a.309.309,0,0,0,.322.174c.417-.043.8.166,1.22.139a1,1,0,0,1,.705.282,1.893,1.893,0,0,1,.687,1.414,2.417,2.417,0,0,0,.107.764c.072.189.117.39.367.379.208-.01.261-.18.329-.349.157-.385.069-.815.238-1.156m-5.211,14.564a.388.388,0,0,0-.357-.416h-.026a.4.4,0,0,0-.425.371s0,.009,0,.013a.332.332,0,0,0,.309.4.427.427,0,0,0,.5-.343c0-.009,0-.018,0-.027" transform="translate(-201.937 -365.773)" fill="#f9b191"/>
    <path id="Path_7209" data-name="Path 7209" d="M289.8,182.228a2.688,2.688,0,0,0-1.955,1.631c-.157.31-.288.356-.586.243a3.787,3.787,0,0,0-.756-.165.272.272,0,0,1-.254-.364,1.932,1.932,0,0,1,.6-1.183c1.22-.261,2.456-.457,3.66-.79a17.534,17.534,0,0,1,1.963-.386c.808-.126,1.624-.183,2.429-.341.907-.174,1.83-.294,2.743-.436a1.1,1.1,0,0,1-.158.2,9.021,9.021,0,0,0-2.745,3.369,4.892,4.892,0,0,0-.023,4.239c.115.252.233.523.58.533a3.24,3.24,0,0,1,.915,1.688,2.44,2.44,0,0,1-.043.578c-.2.571-.377,1.147-.576,1.717a7.3,7.3,0,0,1-3.461,4.037c-.436.245-.882.463-1.336.665a11.3,11.3,0,0,1-3.682.921,13.072,13.072,0,0,1-4.788-.6,4.183,4.183,0,0,1-1.862-1.122,7.929,7.929,0,0,1-1.343-1.974c-.126-.25-.214-.546-.523-.665a.575.575,0,0,0,.005.537,10.326,10.326,0,0,0,.566,1.516c.065.125.193.261-.011.385a6.878,6.878,0,0,1-1.414-2.353,13.716,13.716,0,0,0,1.967-5.4c-.1.07-.149.087-.165.119a2.018,2.018,0,0,0-.121.3,15.614,15.614,0,0,1-2.217,4.231,8.453,8.453,0,0,1-4.477,3.259,4.9,4.9,0,0,1-2.03.339,5.63,5.63,0,0,1-2.167-.61.836.836,0,0,0-.551-.156,5.4,5.4,0,0,1-2-2.859,8.261,8.261,0,0,1-.362-3.823,5.251,5.251,0,0,1,1.018-2.2c.022.018.044.036.066.052-.151.494-.309.986-.449,1.482a5.582,5.582,0,0,0-.332,2.092,6.7,6.7,0,0,0,1.292,3.193c.159.227.316.471.633.508l.065.054-.058-.061a1.283,1.283,0,0,0-.248-.59,6.865,6.865,0,0,1-.6-1.5,4.86,4.86,0,0,1-.287-1.71,9.655,9.655,0,0,1,.232-1.27,12.816,12.816,0,0,1,1.794-4.679,4.791,4.791,0,0,0,.68,1.325.738.738,0,0,1,.071.939,7.133,7.133,0,0,0-.678,1.685,6.95,6.95,0,0,0,.553,5.82,2.768,2.768,0,0,0,2.389,1.431,5.414,5.414,0,0,0,3.939-1.561,6.757,6.757,0,0,0,1.569-8.216,1.9,1.9,0,0,1-.211-.745,3.986,3.986,0,0,1,.4-2.389,10.75,10.75,0,0,0-1.9-.632,1.6,1.6,0,0,1,.36-.62c.05-.074.095-.153.008-.227s-.159-.03-.234.017a1.647,1.647,0,0,0-.486.516c-.087.124-.147.289-.315.307a14.648,14.648,0,0,0-1.664.4c-.215-.485.214-.829.2-1.3a1.875,1.875,0,0,0-.7,1.183c-.054.163,0,.37-.139.49-.417.361-.851.705-1.289,1.065a1.954,1.954,0,0,1-.111-1.387,10.086,10.086,0,0,1,.447-1.353l.012-.04v.049c-.441.048-.555.427-.708.738a2.669,2.669,0,0,0-.207,2.013c.2.638-.148.994-.53,1.425a2.558,2.558,0,0,1-.622-1,4.241,4.241,0,0,1,.017-3.082.94.94,0,0,0-.564.562,3.954,3.954,0,0,0-.358,2.266,2.354,2.354,0,0,0-.539.537c-.441.547-.758,1.177-1.167,1.743-.023-.017-.044-.035-.066-.053a12.6,12.6,0,0,0-1.059-5.966,6.7,6.7,0,0,1-.5-1.25c.295-.041.245.387.594.395a47.369,47.369,0,0,0-2.572-6.064,16.63,16.63,0,0,1,2.621.748,26.2,26.2,0,0,1,3.284,1.36.436.436,0,0,0,.539,0,5.784,5.784,0,0,1,2.329,2.456,10.078,10.078,0,0,0,1.114,1.972.756.756,0,0,0,.82.327,6.322,6.322,0,0,1,2.638.137,11.991,11.991,0,0,1,2.727,1.017,6.418,6.418,0,0,1,1.319.937c.361.344.368.359.018.7a4.283,4.283,0,0,0-.846,1.22,1.256,1.256,0,0,0-.206.864c-.039.121-.087.241-.116.366-.025.108-.017.217.116.257a.187.187,0,0,0,.217-.092c.037-.053.065-.112.1-.165a4.085,4.085,0,0,1,1.52-1.434,9.588,9.588,0,0,0,.817,1.711c-.168.04-.229.192-.316.311a7.69,7.69,0,0,0-.048,8.165c.159.249.275.61.665.66,1.83,2.5,6.133,2.326,8.018-.244,1.822-2.482,1.661-5.029.573-7.683a7,7,0,0,0-.349-.7,1.825,1.825,0,0,1,.333-2.347,3.605,3.605,0,0,0,.443-.47,2.166,2.166,0,0,0-1.792,1.471c-.383-.261-.753-.517-1.122-.771a.442.442,0,0,1-.174-.457,2.043,2.043,0,0,1,.636-1.381c.206-.187.417-.37.625-.556.065-.017.193.005.152-.1-.028-.063-.148-.038-.209.041" transform="translate(-240.585 -158.921)" fill="#fd5d1d"/>
    <path id="Path_7210" data-name="Path 7210" d="M450.982,335.417a.593.593,0,0,0-.111.136c-.024.055-.022.124.057.146a.275.275,0,0,0,.043-.1c.008-.06,0-.123.005-.184.053-.044.164-.071.045-.162Z" transform="translate(-411.743 -306.21)" fill="#fd5d1d"/>
    <path id="Path_7211" data-name="Path 7211" d="M451.826,383.754a.174.174,0,0,0-.127-.133c-.224-.368-.623-.6-.784-1.023a16.845,16.845,0,0,1-.92-2.621,4.491,4.491,0,0,0-.247-.734.233.233,0,0,0-.254-.158.262.262,0,0,0-.231.2,1.088,1.088,0,0,0-.043.318,4.974,4.974,0,0,0,.9,2.86,2.668,2.668,0,0,0,1.569,1.168.174.174,0,0,0,.132.126.958.958,0,0,0,.108.146c.061.055.152.111.2.013s-.039-.139-.125-.152c-.06-.009-.122-.006-.183-.009" transform="translate(-410.246 -346.222)" fill="#fd5d1d"/>
    <path id="Path_7212" data-name="Path 7212" d="M178.982,610.261a15.035,15.035,0,0,1-4.963-.1,62.474,62.474,0,0,1-7.913-1.685,11.979,11.979,0,0,1-1.645-.583,3.31,3.31,0,0,0,1.656-1.4,8.783,8.783,0,0,0,1.04-2.781c.188-.84.268-1.7.444-2.542a22.008,22.008,0,0,0,.44-3.91c.051-1.858.246-3.713.162-5.578-.012-.261,0-.523,0-.78l1.377,2.542a.589.589,0,0,0-.062.378c.182,1.238.413,2.465.551,3.712a23.34,23.34,0,0,1,.047,3.955,27.528,27.528,0,0,1-.328,2.891,13.64,13.64,0,0,1-.95,3.619.349.349,0,0,0,.043.489,2.028,2.028,0,0,1,.872-.848c.012-.008.009-.041.013-.063a14.52,14.52,0,0,0,2.2-5.229,20.873,20.873,0,0,0,.523-4.3,1.55,1.55,0,0,1,.087-.711A15.221,15.221,0,0,0,173.7,598.4a6.534,6.534,0,0,1,1.149.945,13.655,13.655,0,0,0,.111,2,19.334,19.334,0,0,1-.461,4.755,9.091,9.091,0,0,1-1.155,3.073.107.107,0,0,0,.047.144l.019.007a5.24,5.24,0,0,0,1.967-3.287,10.909,10.909,0,0,0,1.166-2.716,16.488,16.488,0,0,0,.572-2.384l3.193,1.931a25.6,25.6,0,0,1-.112,3.153,14.145,14.145,0,0,1-.728,3.123c-.148.384-.507.669-.489,1.11" transform="translate(-150.304 -539.58)" fill="#d8b660"/>
    <path id="Path_7213" data-name="Path 7213" d="M574.61,452.059a1.16,1.16,0,0,1,.261-.905,28.788,28.788,0,0,0,2.475-4.263c.509-1.027,1.116-2,1.625-3.033q.952-1.917,1.811-3.884,1.046-2.375,2-4.785c.712-1.789,1.288-3.625,1.866-5.462a30.785,30.785,0,0,0,1.075-4.331c.278-1.722.684-3.42.872-5.16q.226-2.085.463-4.172a16.576,16.576,0,0,0,.174-2.39c-.009-.315-.234-.617-.078-.941.231-.021.275.161.292.29.057.427.142.848.182,1.279a35.012,35.012,0,0,1,.087,4.931c-.06,1.275-.008,2.558-.134,3.823-.146,1.454-.361,2.9-.584,4.351-.293,1.9-.643,3.783-1.084,5.648a66.075,66.075,0,0,1-2.131,6.8c-.579,1.632-1.213,3.238-1.883,4.834-.336.8-.75,1.563-1.133,2.337a29.24,29.24,0,0,1-2.119,3.872,1.433,1.433,0,0,0-.284.65,15.845,15.845,0,0,1-2.61.377,5.114,5.114,0,0,1-1.148.128" transform="translate(-524.697 -376.938)" fill="#e5cf95"/>
    <path id="Path_7214" data-name="Path 7214" d="M217.371,239.84a13.378,13.378,0,0,1,.923,2,.423.423,0,0,1-.063.478c-.027.034-.051.071-.076.106a30.537,30.537,0,0,0-4.235,10.068,1.694,1.694,0,0,0-.056.964c.269-.056.234-.291.271-.463a28.465,28.465,0,0,1,2.742-7.07c.5-.952,1.125-1.838,1.743-2.834a5.581,5.581,0,0,1,.413,1.917,2.154,2.154,0,0,1-.355,1.593,24.447,24.447,0,0,0-2.533,4.75,23.624,23.624,0,0,0-1.532,6.094.88.88,0,0,1-.548.784c-.736.365-1.446.784-2.167,1.177a29.84,29.84,0,0,0,.132-3.628.789.789,0,0,1,.012-.129c.174-.932.2-1.882.336-2.822.137-.985.316-1.956.533-2.921a41.259,41.259,0,0,1,1.27-4.086,18.035,18.035,0,0,1,3.189-5.977" transform="translate(-193.609 -219.115)" fill="#d8b660"/>
    <path id="Path_7215" data-name="Path 7215" d="M655.19,490.913a35.9,35.9,0,0,0,2.468-4.4,32.529,32.529,0,0,0,1.563-3.35c.929-2.212,1.8-4.445,2.527-6.735a47.283,47.283,0,0,0,1.676-6.978c.162-1.046.436-2.07.553-3.118.174-1.5.5-2.973.618-4.482.128-1.638.279-3.272.243-4.917,0-.129-.005-.261.12-.349a1.4,1.4,0,0,1,.118.878c.024,2.815.075,5.629-.092,8.443a69.467,69.467,0,0,1-1.5,10.719,35.259,35.259,0,0,1-1.672,5.993,30.173,30.173,0,0,1-2.907,5.933,14.3,14.3,0,0,0-1.154,1.569.463.463,0,0,1-.3.226,12.058,12.058,0,0,1-2.253.571" transform="translate(-598.267 -416.966)" fill="#90793f"/>
    <path id="Path_7216" data-name="Path 7216" d="M482.26,313.216a7.846,7.846,0,0,1,.991-3.672,5.62,5.62,0,0,1,1.83-1.9,2.5,2.5,0,0,1,1.818-.3,4.34,4.34,0,0,1,3.468,2.54,6.191,6.191,0,0,1-.417,6.53,4.529,4.529,0,0,1-5.519,1.422,2.953,2.953,0,0,1-1.421-1.374,7,7,0,0,1-.75-3.245m7.572-.159a5.1,5.1,0,0,0-.47-2.627,1.578,1.578,0,0,0-2.117-.831,2.236,2.236,0,0,0-.89.628,4.613,4.613,0,0,0-1.181,2.476,5.956,5.956,0,0,0,.151,3.132,1.724,1.724,0,0,0,2.631.939,3.389,3.389,0,0,0,1.556-1.922,4.87,4.87,0,0,0,.319-1.8" transform="translate(-440.408 -280.692)" fill="#fff"/>
    <path id="Path_7217" data-name="Path 7217" d="M141.7,558.744c0,.261-.013.523,0,.78.087,1.862-.112,3.716-.162,5.578a22.015,22.015,0,0,1-.44,3.91c-.174.838-.255,1.7-.444,2.542a8.782,8.782,0,0,1-1.04,2.781,3.3,3.3,0,0,1-1.656,1.4c-.862-.282-1.7-.634-2.527-1-.01-.157.106-.129.166-.136a3.379,3.379,0,0,0,2.6-1.933,11.429,11.429,0,0,0,1.013-3.272,33.711,33.711,0,0,0,.511-4.052c.174-2.112.286-4.229.407-6.345.055-.95.067-1.9.1-2.853a.6.6,0,0,1,.108-.479c.441,1.056,1.03,2.005,1.36,3.074" transform="translate(-123.807 -507.42)" fill="#e5cf95"/>
    <path id="Path_7218" data-name="Path 7218" d="M392.56,668.461c.343-.209.682.006.989.071a16.244,16.244,0,0,0,4.453.122,21.555,21.555,0,0,0,8.366-2.6c1.95-.984,3.835-2.092,5.7-3.233a.694.694,0,0,1,.536-.174,1.343,1.343,0,0,1-.2.8c-.385.8-.784,1.59-1.158,2.395a1.168,1.168,0,0,1-.667.654c-1.871.735-3.723,1.523-5.608,2.219a23.162,23.162,0,0,1-4.1.959,14.227,14.227,0,0,1-3.611.252,12.712,12.712,0,0,1-4.466-1.264c-.1-.046-.207-.083-.245-.2" transform="translate(-358.525 -605.059)" fill="#a57661"/>
    <path id="Path_7219" data-name="Path 7219" d="M611.986,167.123a28.27,28.27,0,0,0-4.364-3.011,32.555,32.555,0,0,0-5.091-2.266c-.087-.032-.227-.016-.241-.227.316.04.627.058.926.121a23.165,23.165,0,0,1,8.967,4.22,30.014,30.014,0,0,1,4.38,4.048,27.906,27.906,0,0,1,3.573,5.079,26.266,26.266,0,0,1,2.572,6.63,23.184,23.184,0,0,1,.5,2.927c.108.932.08,1.857.1,2.789,0,.139.046.356-.174.349-.174,0-.215-.193-.213-.349a12.713,12.713,0,0,0-.121-1.352,21.285,21.285,0,0,0-.79-3.86,28.4,28.4,0,0,0-2.382-5.743,30,30,0,0,0-3.274-4.9,32.155,32.155,0,0,0-2.393-2.643.737.737,0,0,1-.3-.485c.331-.665.174-1.018-.531-1.155-.377-.08-.759-.119-1.147-.174" transform="translate(-549.977 -147.711)" fill="#e5cf95"/>
    <path id="Path_7220" data-name="Path 7220" d="M718.338,492.27a.237.237,0,0,1,.211.212q.141,1.252.279,2.5a71.948,71.948,0,0,1,.1,7.91,25.753,25.753,0,0,1-.315,3.408,33.185,33.185,0,0,1-.578,3.573,68.533,68.533,0,0,1-2.5,8.166,17.558,17.558,0,0,1-1.38,2.789c-.1.166-.188.339-.282.51a13.323,13.323,0,0,1-1.524.651.647.647,0,0,1,.164-.523,28.827,28.827,0,0,0,2.4-5.109,56.655,56.655,0,0,0,2.549-10,51.03,51.03,0,0,0,.744-5.99c.087-1.6.151-3.2.214-4.8.034-.872-.092-1.729-.114-2.594a1.809,1.809,0,0,1,.032-.709" transform="translate(-650.44 -449.545)" fill="#90793f"/>
    <path id="Path_7221" data-name="Path 7221" d="M204.3,225.855a18.087,18.087,0,0,0-3.189,5.976,40.883,40.883,0,0,0-1.27,4.086c-.217.966-.4,1.936-.533,2.921-.131.939-.162,1.889-.336,2.822a.792.792,0,0,0-.012.129,29.827,29.827,0,0,1-.132,3.628l-1.133.959c-.193-.133-.087-.293-.072-.424.224-2.522.393-5.055.7-7.564a28.271,28.271,0,0,1,2.527-9.613,23.384,23.384,0,0,1,2.623-4.09,1.674,1.674,0,0,1,.2-.166,6.357,6.357,0,0,1,.627,1.335" transform="translate(-180.54 -205.13)" fill="#e5cf95"/>
    <path id="Path_7222" data-name="Path 7222" d="M415.912,770.684a2.274,2.274,0,0,1-1.3-.094,4.251,4.251,0,0,1,.492-.753c.717-.966,1.452-1.917,2.084-2.945s1.251-2.106,1.956-3.112a1.873,1.873,0,0,0,.565-1.2,14.645,14.645,0,0,0,2.9-1.167.325.325,0,0,1,.044.357c-.468,1.373-.872,2.764-1.46,4.1a7.823,7.823,0,0,1-4.9,4.6c-.139.045-.309.045-.372.221" transform="translate(-378.653 -695.23)" fill="#f9b191"/>
    <path id="Path_7223" data-name="Path 7223" d="M764.07,495.586a1.568,1.568,0,0,1,.207-.733,28.075,28.075,0,0,0,2.4-5.874c.454-1.53.817-3.086,1.123-4.652q.366-1.869.587-3.764c.125-1.068.3-2.134.36-3.207.047-.775.139-1.549.15-2.325.024-1.6.01-3.208.01-4.812a26.925,26.925,0,0,0-.364-3.987,5.407,5.407,0,0,1-.005-.772c.37.349.261.808.332,1.2.156.844.2,1.71.3,2.565.174,1.437.208,2.882.289,4.325a21.306,21.306,0,0,1,.075,2.717c-.087,1.2-.041,2.416-.219,3.616-.082.552-.071,1.116-.128,1.676a53.32,53.32,0,0,1-1,6.182,39.654,39.654,0,0,1-1.621,5.392c-.174.459-.541.849-.523,1.381a11.191,11.191,0,0,1-1.978,1.071" transform="translate(-697.658 -425.072)" fill="#e5cf95"/>
    <path id="Path_7224" data-name="Path 7224" d="M429.55,759.554c.063-.174.233-.174.372-.22a7.824,7.824,0,0,0,4.9-4.6c.586-1.333.992-2.724,1.46-4.1a.325.325,0,0,0-.044-.357,14.65,14.65,0,0,1-2.9,1.167c-.409,0-.817.016-1.22.005a2.19,2.19,0,0,1-1.133-.169.786.786,0,0,1,.009-.129c.208-.906.106-.724.906-.718a17.25,17.25,0,0,0,6.487-1.078.963.963,0,0,1,.56-.132l-.009-.01a.32.32,0,0,1-.028.308,24.219,24.219,0,0,0-1.761,5.339,2.382,2.382,0,0,1-.776,1.3,16.847,16.847,0,0,1-3.791,2.581,7.631,7.631,0,0,1-3.037.81" transform="translate(-392.291 -684.099)" fill="#a57661"/>
    <path id="Path_7225" data-name="Path 7225" d="M567.32,137.586a.088.088,0,0,0,0-.071,39.238,39.238,0,0,1,4.208-.261,33.252,33.252,0,0,1,12.73,2.46,15.338,15.338,0,0,1,3.062,1.692,22.206,22.206,0,0,1,5.973,6.434,1.12,1.12,0,0,1,.071.18c-.29.039-.417-.2-.58-.356-.8-.79-1.569-1.605-2.389-2.377a27.618,27.618,0,0,0-3.352-2.74,23.472,23.472,0,0,0-2.827-1.822,26.958,26.958,0,0,0-5.189-1.8,41.529,41.529,0,0,0-5.2-.943,13.627,13.627,0,0,1-1.989-.213.761.761,0,0,0-.63.057c-1.293-.114-2.587-.229-3.886-.24" transform="translate(-518.055 -125.468)" fill="#e5cf95"/>
    <path id="Path_7226" data-name="Path 7226" d="M438.105,370c.2-.122.077-.261.011-.385a10.037,10.037,0,0,1-.566-1.516.576.576,0,0,1-.005-.537c.309.119.4.415.523.665a7.9,7.9,0,0,0,1.343,1.974,4.184,4.184,0,0,0,1.861,1.123,13.084,13.084,0,0,0,4.788.6,11.3,11.3,0,0,0,3.686-.921c.454-.2.9-.42,1.336-.665a7.322,7.322,0,0,0,3.462-4.038c.2-.57.379-1.146.576-1.717a2.441,2.441,0,0,0,.043-.578l.284.007c.269.127.316.4.386.639a8.926,8.926,0,0,1,.377,3.747c-.039.276-.087.55-.137.825l-1.807.531-.046-.046a1.907,1.907,0,0,1,.349-.688,6.014,6.014,0,0,0,.88-2.69,3.167,3.167,0,0,0-.122-1.757c-.052.34-.109.632-.141.926a7.844,7.844,0,0,1-2.636,5.07,7.084,7.084,0,0,1-2.334,1.254,14.329,14.329,0,0,1-3.927.813,12.79,12.79,0,0,1-4.43-.44,8.461,8.461,0,0,1-3.372-1.761,1.252,1.252,0,0,1-.383-.433" transform="translate(-399.53 -332.454)" fill="#a93e14"/>
    <path id="Path_7227" data-name="Path 7227" d="M425.384,217.68c1.83,1.033,3.788,1.778,5.687,2.656.092.043.2.065.269.2a1.216,1.216,0,0,1-.638.241,15.164,15.164,0,0,0-2.622.925c-.22.1-.415.275-.713.145-.182-.079-.261.166-.379.288-.326.354-.414.366-.79.07a12.652,12.652,0,0,0-3.592-1.895c-.119-.044-.237-.1-.356-.144a.556.556,0,0,1,.207-.39,8.463,8.463,0,0,1,2.153-1.646,2.153,2.153,0,0,0,.774-.449" transform="translate(-385.628 -198.886)" fill="#f9b191"/>
    <path id="Path_7228" data-name="Path 7228" d="M339.677,745.692a2.976,2.976,0,0,0,.946-1.086.431.431,0,0,1,.626-.239q.461.151.936.256c.571.149.573.148.587.711a3.107,3.107,0,0,1-.015.452c-.071.57-.073.572-.644.692a17.971,17.971,0,0,0-3.4,1.233,19.56,19.56,0,0,1-3.686,1.394c-.274.057-.552.1-.828.146.1-.3.383-.444.57-.67.174-.206.436-.349.478-.648a5.125,5.125,0,0,0,1.192-1.666,10.735,10.735,0,0,0,1.119-2.739c.072-.289.155-.429.471-.255s.657.312.987.465a3.948,3.948,0,0,1,.047.886,7.391,7.391,0,0,1-1.041,2.738c-.01.015.036.067.082.151a2.957,2.957,0,0,0,1.436-1.562c.111-.057.242-.1.142-.27Z" transform="translate(-305.251 -678.605)" fill="#d8b660"/>
    <path id="Path_7229" data-name="Path 7229" d="M483.491,159.278a10.6,10.6,0,0,0-1.945-.861,37.25,37.25,0,0,1-4.732-2.407,2.1,2.1,0,0,1-1-2.227,1.132,1.132,0,0,1,.429-.706,10.021,10.021,0,0,1,2.8-1.319.458.458,0,0,1,.458.061c-.34.248-.671.481-.992.727a2.578,2.578,0,0,0-.929,1.142.891.891,0,0,0,.193,1.008,8.72,8.72,0,0,0,2.644,1.6c1.625.817,3.39,1.288,5.034,2.059a.769.769,0,0,1,.436.356Z" transform="translate(-434.493 -138.677)" fill="#e5cf95"/>
    <path id="Path_7230" data-name="Path 7230" d="M208.026,475.667c.024.29-.194.356-.4.427-.286.1-.579.179-.862.284a3.054,3.054,0,0,0-2,2.2,8.755,8.755,0,0,0,.064,4.1,11.92,11.92,0,0,0,.814,2.854.61.61,0,0,1,.019.383,18.675,18.675,0,0,1-2.63-6.571,5.156,5.156,0,0,1,.551-3.209,2.656,2.656,0,0,1,1.248-1.187,8.771,8.771,0,0,1,.9-.355c.655-.234,1.267-.386,1.647.465a1.249,1.249,0,0,0,.642.613" transform="translate(-185.456 -433.238)" fill="#f9cab6"/>
    <path id="Path_7231" data-name="Path 7231" d="M855.568,482.042c-.242-.2-.064-.417.016-.587a24.634,24.634,0,0,0,1.046-2.789,42.832,42.832,0,0,0,1.43-5.7c.254-1.394.519-2.793.731-4.2.142-.936.164-1.889.308-2.825.115-.748.04-1.51.219-2.248a1.992,1.992,0,0,0,.025-.323c.152-2.03.141-4.062.132-6.1v-.327c.188.03.13.152.13.227.017,2.789.234,5.578.121,8.366-.062,1.527-.156,3.05-.343,4.574-.174,1.41-.4,2.812-.565,4.222a31.752,31.752,0,0,1-.976,4.347,2.453,2.453,0,0,0-.18,1.013v-.007a.163.163,0,0,0-.122.165,15.547,15.547,0,0,1-1.972,2.184" transform="translate(-781.07 -417.303)" fill="#e5cf95"/>
    <path id="Path_7232" data-name="Path 7232" d="M618.892,245.138c-.349-.009-.465-.281-.58-.533a4.892,4.892,0,0,1,.023-4.239A9.021,9.021,0,0,1,621.08,237a1.1,1.1,0,0,0,.158-.2c.281-.191.552-.395.841-.575.221-.138.509-.241.582-.549.944-.057,1.885-.026,2.905.01a1.287,1.287,0,0,1-.729.537,11.347,11.347,0,0,0-3.993,3.259,8.858,8.858,0,0,0-1.953,5.659" transform="translate(-564.172 -215.281)" fill="#a93e14"/>
    <path id="Path_7233" data-name="Path 7233" d="M518.176,236c-.073.308-.361.411-.582.549-.289.18-.56.384-.841.575-.915.143-1.835.261-2.743.436-.805.158-1.621.214-2.429.341a17.557,17.557,0,0,0-1.96.387c-1.206.334-2.44.533-3.66.79.138-.315.484-.469.688-.851a2.355,2.355,0,0,0-1.569,1.122,1.84,1.84,0,0,0-.736.123,4.336,4.336,0,0,1-.964.268c.037-.78.2-.993.872-1.224.412-.141.842-.192,1.26-.294,1.2-.289,2.395-.581,3.573-.94a19.17,19.17,0,0,1,3.988-.846c1.7-.143,3.394-.372,5.1-.437" transform="translate(-459.687 -215.609)" fill="#f99067"/>
    <path id="Path_7234" data-name="Path 7234" d="M409.352,772.92a2.189,2.189,0,0,0,1.133.169c.408.011.816,0,1.22-.005a1.88,1.88,0,0,1-.565,1.2c-.705,1.006-1.316,2.069-1.956,3.112s-1.359,1.977-2.076,2.945a4.262,4.262,0,0,0-.492.753c-.523-.087-.7-.464-.754-.921a2.013,2.013,0,0,1,.23-1.063,10.592,10.592,0,0,1,1.258-1.964,10.538,10.538,0,0,0,1.957-4.188c0-.016.032-.027.045-.041" transform="translate(-370.66 -705.737)" fill="#f9cab6"/>
    <path id="Path_7235" data-name="Path 7235" d="M829.858,552.082a6.383,6.383,0,0,1,.037-1.322.514.514,0,0,1,.314.45c.057.558.132,1.117.137,1.677a33.756,33.756,0,0,0,.254,3.812,15.176,15.176,0,0,1-.108,1.549,25.519,25.519,0,0,1-.349,3.667,30.009,30.009,0,0,1-1.422,6.04,1,1,0,0,0-.045.512v-.016c-.1.035-.114.121-.139.2a6.181,6.181,0,0,1-1.562,1.359c0-.043-.018-.092,0-.126a28.47,28.47,0,0,0,2.051-6.948c.321-1.632.667-3.263.852-4.92a44.043,44.043,0,0,0,.209-5.51c-.006-.186-.034-.349-.229-.428" transform="translate(-755.073 -502.938)" fill="#90793f"/>
    <path id="Path_7236" data-name="Path 7236" d="M367.544,445.005c-.217.25-.539.215-.818.3a12.931,12.931,0,0,0-2.815.9A2.056,2.056,0,0,0,362.9,448.2a4.892,4.892,0,0,0,.744,2.108c.174.249.246.507-.028.746a12.633,12.633,0,0,1-1.894-2.527,3.453,3.453,0,0,1-.539-1.969,1.507,1.507,0,0,1,.93-1.43,6.61,6.61,0,0,1,3.234-.449,3.763,3.763,0,0,1,1.632.316c.148.078.374.01.567.01" transform="translate(-329.879 -406.078)" fill="#f9cab6"/>
    <path id="Path_7237" data-name="Path 7237" d="M214.776,634.243c0,.022,0,.055-.013.063a1.969,1.969,0,0,0-.871.848.35.35,0,0,1-.043-.489,13.641,13.641,0,0,0,.95-3.619,27.543,27.543,0,0,0,.328-2.891,23.331,23.331,0,0,0-.047-3.955c-.138-1.246-.369-2.474-.551-3.712a.589.589,0,0,1,.062-.378c.474.537.784,1.189,1.22,1.753a.888.888,0,0,1,.138.427,21.641,21.641,0,0,1,.293,3.876,17.241,17.241,0,0,1-1.717,7.454c-.17.322-.126.536.252.623" transform="translate(-195.314 -566.244)" fill="#90793f"/>
    <path id="Path_7238" data-name="Path 7238" d="M542.971,728.551a.292.292,0,0,1-.047.255c-.937,1.586-1.78,3.224-2.813,4.755-.311.46-.326.476-.771.126-.972-.763-.926-.413-.436-1.59a14.134,14.134,0,0,1,1.133-2.266,1.14,1.14,0,0,1,.493-.5,20.848,20.848,0,0,1,2.266-.809.452.452,0,0,1,.175.026" transform="translate(-491.804 -665.21)" fill="#90793f"/>
    <path id="Path_7239" data-name="Path 7239" d="M253.168,159.507a.441.441,0,0,1-.539,0,26.2,26.2,0,0,0-3.284-1.36,16.422,16.422,0,0,0-2.621-.748,47.318,47.318,0,0,1,2.572,6.064c-.349-.008-.3-.436-.594-.395l.01-.01c.037-.132.016-.235-.136-.272l.01.012c.029-.131,0-.234-.142-.273l.014.017a.151.151,0,0,0-.1-.166c-1.1-2.115-2.2-4.228-3.215-6.559.75.276,1.352.489,1.948.717a41.11,41.11,0,0,1,5.3,2.421,2.068,2.068,0,0,1,.784.549" transform="translate(-223.953 -142.417)" fill="#f99067"/>
    <path id="Path_7240" data-name="Path 7240" d="M375.436,192.883c-.6.169-1.171.305-1.725.485a18.983,18.983,0,0,0-3.647,1.686c-.362.213-.369.2-.558-.184-.142-.292-.281-.586-.427-.876-.182-.365-.19-.378.206-.561a21.233,21.233,0,0,1,5.2-1.6c.24-.043.4-.037.5.234a6.763,6.763,0,0,0,.448.815" transform="translate(-336.981 -175.274)" fill="#d8b660"/>
    <path id="Path_7241" data-name="Path 7241" d="M316.43,351.291a.836.836,0,0,1,.551.156,5.615,5.615,0,0,0,2.167.61,4.906,4.906,0,0,0,2.03-.339,8.452,8.452,0,0,0,4.477-3.259,15.614,15.614,0,0,0,2.217-4.231,2.023,2.023,0,0,1,.121-.3c.016-.032.064-.049.165-.119a13.765,13.765,0,0,1-1.967,5.4c-.105-.026-.3-.174-.283.044.041.419-.23.562-.5.739-.615.4-1.226.806-1.841,1.207a3.908,3.908,0,0,1-1.771.733,1.25,1.25,0,0,0-.556.157,3.5,3.5,0,0,1-2.7.186,4.787,4.787,0,0,1-1.811-.668c-.121-.081-.266-.15-.3-.321" transform="translate(-289.03 -314.024)" fill="#a93e14"/>
    <path id="Path_7242" data-name="Path 7242" d="M268.249,694.556a5.24,5.24,0,0,1-1.967,3.287.107.107,0,0,1-.073-.133.1.1,0,0,1,.007-.019,9.058,9.058,0,0,0,1.155-3.073,19.336,19.336,0,0,0,.461-4.755,14.091,14.091,0,0,1-.111-2,5.309,5.309,0,0,1,1.046.637c.305.18.244.477.222.756a22.251,22.251,0,0,1-.8,4.458c-.081.28-.221.584.058.845" transform="translate(-243.182 -628.09)" fill="#90793f"/>
    <path id="Path_7243" data-name="Path 7243" d="M393.042,213.793a2.153,2.153,0,0,1-.774.449,8.463,8.463,0,0,0-2.153,1.646.556.556,0,0,0-.207.39,13.691,13.691,0,0,0-3.088-.54,12.6,12.6,0,0,1,2.146-1.231,12.9,12.9,0,0,1,3.055-1.046.862.862,0,0,1,1.02.331" transform="translate(-353.285 -194.999)" fill="#a57661"/>
    <path id="Path_7244" data-name="Path 7244" d="M465.921,325.156c-.39-.048-.506-.41-.665-.66a7.683,7.683,0,0,1,.048-8.165c.087-.119.148-.271.316-.311.472.42.469.418.192.929a8.07,8.07,0,0,0-.853,4.947,10.427,10.427,0,0,0,.962,3.26" transform="translate(-423.835 -288.655)" fill="#a93e14"/>
    <path id="Path_7245" data-name="Path 7245" d="M328.157,141.15c-.069.174-.246.157-.377.22a47.489,47.489,0,0,0-5.508,3.137c-.162.105-.349.18-.376.41l-1.307-.658c.025-.254.221-.291.355-.383a20.489,20.489,0,0,1,5.39-2.308,6.915,6.915,0,0,1,1.822-.419" transform="translate(-292.827 -129.025)" fill="#e5cf95"/>
    <path id="Path_7246" data-name="Path 7246" d="M332.4,734.369c-.042.3-.307.442-.478.648-.187.227-.467.373-.57.67-.08.087-.174.065-.269.036-.018-.444.343-.726.481-1.108a14.145,14.145,0,0,0,.731-3.123,25.261,25.261,0,0,0,.112-3.153c.078.036.158.067.233.109,1.145.636,1.184.646.89,1.884a14.848,14.848,0,0,1-1.08,3.66.413.413,0,0,0-.05.376" transform="translate(-302.405 -665.042)" fill="#90793f"/>
    <path id="Path_7247" data-name="Path 7247" d="M259.477,379.833a18.269,18.269,0,0,0-1.44,3.012,10.22,10.22,0,0,0-.535,1.98c-.018.131-.033.261-.18.313a10.027,10.027,0,0,1,.2-2.242,21.805,21.805,0,0,1,1.2-4.692c.043-.113.056-.255.251-.343.168.665.334,1.319.5,1.973" transform="translate(-235.06 -345.106)" fill="#a57661"/>
    <path id="Path_7248" data-name="Path 7248" d="M638.849,346.41c.046-.275.1-.549.137-.825a8.929,8.929,0,0,0-.377-3.747c-.07-.243-.117-.512-.386-.639-.069-.583-.392-1.1-.462-1.68a1.266,1.266,0,0,1-.044-.5,4.677,4.677,0,0,1,.7,1.307,25.72,25.72,0,0,1,1.387,5.18c.092.7.1.7-.565.865a2.346,2.346,0,0,1-.387.037" transform="translate(-582.303 -309.651)" fill="#fd5d1d"/>
    <path id="Path_7249" data-name="Path 7249" d="M379.565,751.457a2.95,2.95,0,0,1-1.436,1.562c-.046-.087-.092-.136-.082-.151a7.39,7.39,0,0,0,1.041-2.738,3.705,3.705,0,0,0-.047-.886c.021,0,.044-.016.062-.011,1.089.246,1.082.244.754,1.294a1.4,1.4,0,0,0-.155.674l.005-.013c-.153.035-.131.161-.142.27" transform="translate(-345.275 -684.112)" fill="#90793f"/>
    <path id="Path_7250" data-name="Path 7250" d="M637.578,442.718c-.212-.261-.168-.61-.269-.909a1.591,1.591,0,0,0-1.583-1.177,1.137,1.137,0,0,1-.566-.083,4.6,4.6,0,0,1,2.184-.436c.207-.009.329.075.318.3a12.8,12.8,0,0,1-.084,2.306" transform="translate(-579.982 -401.934)" fill="#a57661"/>
    <path id="Path_7251" data-name="Path 7251" d="M525.25,798.317a17.339,17.339,0,0,1,.623-2.54c.087-.272.23-.249.436-.118.709.454.722.49.245,1.179-.271.391-.545.784-.83,1.162a.548.548,0,0,1-.474.317" transform="translate(-479.651 -726.408)" fill="#526b8f"/>
    <path id="Path_7252" data-name="Path 7252" d="M480.876,281.91c.01.337.139.742,0,.992s-.554.363-.852.523a.736.736,0,0,1-.428.167,1.813,1.813,0,0,1-.275-1.014c.538-.17,1-.524,1.555-.668" transform="translate(-437.725 -257.518)" fill="#fd5d1d"/>
    <path id="Path_7253" data-name="Path 7253" d="M480.086,270.381c-.553.144-1.017.5-1.557.671-.023-.174-.052-.341-.07-.512a.377.377,0,0,1,.216-.427c.536-.255,1.069-.518,1.719-.833-.127.454-.217.777-.308,1.1" transform="translate(-436.934 -245.989)" fill="#f99067"/>
    <path id="Path_7254" data-name="Path 7254" d="M503.1,274.76a4.029,4.029,0,0,0,.964-.268,1.851,1.851,0,0,1,.736-.123c-.14.335-.3.664-.415,1.007a.421.421,0,0,1-.357.3c-.675.174-.838.078-.944-.6a1.562,1.562,0,0,1,.016-.318" transform="translate(-459.418 -250.629)" fill="#fd5d1d"/>
    <path id="Path_7255" data-name="Path 7255" d="M451.5,286.608a4.085,4.085,0,0,0-1.52,1.435c-.036.053-.064.112-.1.165a.187.187,0,0,1-.217.091c-.133-.04-.141-.149-.116-.257.03-.125.077-.245.116-.366.261-.017.27-.248.349-.411a4.26,4.26,0,0,1,1.339-1.594c.18.314.093.639.15.938" transform="translate(-410.538 -260.95)" fill="#f99067"/>
    <path id="Path_7256" data-name="Path 7256" d="M486.3,301.06c.161,0,.322,0,.39.174.077.192-.1.261-.207.355a4.857,4.857,0,0,0-.384.349c-.144.151-.291.194-.444.038s-.484-.256-.445-.512c.041-.273.368-.233.586-.292.166-.045.336-.075.5-.112" transform="translate(-443.094 -274.999)" fill="#a93e14"/>
    <path id="Path_7257" data-name="Path 7257" d="M779.456,481.71c.281.193.252.423.087.671-.207-.2-.135-.437-.087-.671" transform="translate(-711.656 -439.906)" fill="#90793f"/>
    <path id="Path_7258" data-name="Path 7258" d="M866.228,261.133c-.29,0-.285-.2-.269-.4a.685.685,0,0,1,.269.4" transform="translate(-790.661 -238.184)" fill="#e5cf95"/>
    <path id="Path_7259" data-name="Path 7259" d="M235.21,609c.157.046.16.174.164.3a.408.408,0,0,1-.164-.3" transform="translate(-214.888 -556.102)" fill="#f9cab6"/>
    <path id="Path_7260" data-name="Path 7260" d="M283.053,232.76c.146.039.174.142.142.273a.247.247,0,0,1-.142-.273" transform="translate(-258.561 -212.652)" fill="#fd5d1d"/>
    <path id="Path_7261" data-name="Path 7261" d="M284.55,235.75c.152.037.174.139.136.272a.237.237,0,0,1-.136-.272" transform="translate(-259.926 -215.381)" fill="#fd5d1d"/>
    <path id="Path_7262" data-name="Path 7262" d="M302.66,322.079a.418.418,0,0,1,.11-.279c.022.018.044.037.066.053a.415.415,0,0,1-.128.261Z" transform="translate(-276.46 -293.932)" fill="#fd5d1d"/>
    <path id="Path_7263" data-name="Path 7263" d="M300.94,325.223a.332.332,0,0,1,.15-.243l.048.037a.419.419,0,0,1-.132.261c-.023-.019-.044-.035-.066-.055" transform="translate(-274.89 -296.835)" fill="#fd5d1d"/>
    <path id="Path_7264" data-name="Path 7264" d="M233.63,606.14c.159.032.174.147.155.277a.355.355,0,0,1-.155-.277" transform="translate(-213.446 -553.492)" fill="#f9cab6"/>
    <path id="Path_7265" data-name="Path 7265" d="M407.286,140.513l-.146.075c.015-.09.075-.085.146-.075" transform="translate(-371.834 -128.439)" fill="#e5cf95"/>
    <path id="Path_7266" data-name="Path 7266" d="M282,231.06a.151.151,0,0,1,.1.166c-.082-.024-.1-.084-.1-.166" transform="translate(-257.6 -211.1)" fill="#fd5d1d"/>
    <path id="Path_7267" data-name="Path 7267" d="M628.957,429.435c-.026.023-.068.07-.074.065-.079-.057-.016-.082.029-.111a.447.447,0,0,1,.045.045" transform="translate(-574.218 -392.145)" fill="#a93e14"/>
    <path id="Path_7268" data-name="Path 7268" d="M870.567,267.757c-.045-.069-.087-.139-.137-.207a.25.25,0,0,1,.137.207" transform="translate(-794.749 -244.41)" fill="#e5cf95"/>
    <path id="Path_7269" data-name="Path 7269" d="M869.007,265.439l-.117-.149a.146.146,0,0,1,.117.149" transform="translate(-793.343 -242.347)" fill="#e5cf95"/>
    <path id="Path_7270" data-name="Path 7270" d="M562.39,141.07c1.3.01,2.593.125,3.886.241l4.044.716c.092.15.261.14.4.183a18.792,18.792,0,0,1,6.115,3.217c.63.494,1.207,1.059,1.852,1.53a18.542,18.542,0,0,1,4.376,4.483,53.082,53.082,0,0,1,3.2,5.194c.478.9.718,1.9,1.105,2.84a19.414,19.414,0,0,1,1.283,6.722c.067,1.686.025,3.378.036,5.068a2.043,2.043,0,0,0,.041.709c-.061.406-.121.813-.184,1.22a2.321,2.321,0,0,1-.329.939c-.236-.053-.2-.206-.208-.324-.261-3.39-.506-6.782-.784-10.17a16.983,16.983,0,0,0-1.338-4.93,28.207,28.207,0,0,0-6.371-9.481c-.828-.826-1.684-1.625-2.581-2.378a18.43,18.43,0,0,0-8.032-4.067c-2.137-.461-4.28-.882-6.436-1.24a.268.268,0,0,1-.064-.01c-.174-.044-.471.034-.477-.215s.3-.174.471-.246" transform="translate(-513.125 -128.952)" fill="#040303"/>
    <path id="Path_7271" data-name="Path 7271" d="M676.714,181.285a1.963,1.963,0,0,1-.041-.709c-.01-1.69.031-3.381-.036-5.068a19.345,19.345,0,0,0-1.283-6.722c-.387-.939-.627-1.939-1.1-2.84a53.094,53.094,0,0,0-3.2-5.194,18.546,18.546,0,0,0-4.376-4.483c-.645-.471-1.22-1.036-1.852-1.53a18.791,18.791,0,0,0-6.115-3.217c-.137-.043-.308-.033-.4-.183a1.606,1.606,0,0,1,1.046.073,14.256,14.256,0,0,1,3.74,1.434,23.7,23.7,0,0,1,3.573,2.221,30.119,30.119,0,0,1,8.675,10.6,18.842,18.842,0,0,1,1.538,4.669c.152.913.2,1.843.288,2.767a53.215,53.215,0,0,1,.128,5.775,10.787,10.787,0,0,1-.247,1.989c-.038.2-.1.376-.336.418" transform="translate(-601.115 -138.264)" fill="#90793f"/>
    <path id="Path_7272" data-name="Path 7272" d="M320.4,496.677c.716.184,1.195.749,1.868.928.123-.181.034-.37-.005-.544a16.673,16.673,0,0,0-3.631-7.247,1.6,1.6,0,0,0-.69-.458,10.456,10.456,0,0,1-3.281-2.067,2.576,2.576,0,0,1-.61-.751.135.135,0,0,1,.038-.174.126.126,0,0,1,.174,0,.907.907,0,0,1,.1.087,8.729,8.729,0,0,0,4.316,2.392,23.275,23.275,0,0,0,6.42.792,18.945,18.945,0,0,0,6.235-1.142,12.4,12.4,0,0,0,4.6-2.973,1.255,1.255,0,0,0,.4-.505c-.3-.125-.579.174-.872.03-.04-.271.188-.329.343-.414.741-.406,1.482-.81,2.239-1.187a4.284,4.284,0,0,1,1.813-.455,1.54,1.54,0,0,1,1.58,1.018,1.853,1.853,0,0,1-.062,1.817c-.27-.04-.28-.212-.332-.343a4.723,4.723,0,0,0-.61-1.067.851.851,0,0,0-.6-.349c-.456-.061-.528,0-.489.468.068.8.15,1.595.216,2.393a13.837,13.837,0,0,1-.193,3.43,19.758,19.758,0,0,1-1.682,5.37,8.244,8.244,0,0,1-6.719,4.706,12.09,12.09,0,0,1-6.013-.641,14.01,14.01,0,0,1-4.491-2.92c-.028-.019-.027-.075-.063-.2m17.664-10.8a1.64,1.64,0,0,0-.268-.959c-.215.058-.293.224-.4.354a13.474,13.474,0,0,1-6.807,4.43,22.405,22.405,0,0,1-4.4.784,17.51,17.51,0,0,1-4.906-.261,2.751,2.751,0,0,0-1.133-.133l.812,1c.112.186.218.375.334.557a21.817,21.817,0,0,1,2.538,6.018c-.13.991.58,1.217,1.293,1.443.186.058.37.123.56.166a15.959,15.959,0,0,0,4.125.4,9.072,9.072,0,0,0,3.634-.871,6.771,6.771,0,0,0,3.155-2.888,15.1,15.1,0,0,0,1.8-5.926,11.635,11.635,0,0,0-.336-4.114" transform="translate(-286.845 -441.073)" fill="#040303"/>
    <path id="Path_7273" data-name="Path 7273" d="M345.269,625.2l-.364-.087a2.414,2.414,0,0,0-.76-.332,11.68,11.68,0,0,1-3.442-1.929,6.312,6.312,0,0,1-2.482-3.472c.225-1.407,1.247-1.792,2.6-1.663a3.138,3.138,0,0,1,1.229.37c.148.081.332.174.292.379-.05.247-.291.1-.436.163-.194-.078-.4-.045-.61-.131a2.3,2.3,0,0,0-1.59,0,.868.868,0,0,0-.593,1.178,3.442,3.442,0,0,0,.7,1.23,9.647,9.647,0,0,0,1.743,1.636,15.07,15.07,0,0,0,5.938,2.44l.81.221a1.507,1.507,0,0,1-1.109.254c-.552-.038-1.1-.123-1.652-.188a.209.209,0,0,0-.279-.069" transform="translate(-308.921 -564.037)" fill="#040303"/>
    <path id="Path_7274" data-name="Path 7274" d="M356.352,631.95a15.15,15.15,0,0,1-5.937-2.44,9.656,9.656,0,0,1-1.743-1.636,3.445,3.445,0,0,1-.7-1.23.869.869,0,0,1,.593-1.178,2.32,2.32,0,0,1,1.591,0c.212.087.415.053.61.131-.2.2-.452.1-.682.116-.644.031-.917.383-.7.984a3.5,3.5,0,0,0,.565,1.092,12.149,12.149,0,0,0,1.673,1.625,13.047,13.047,0,0,0,3.72,1.937c.356.133.792.2,1.011.6" transform="translate(-317.769 -571.005)" fill="#f9cab6"/>
    <path id="Path_7275" data-name="Path 7275" d="M613.435,462.136c-.169.342-.081.771-.241,1.159-.069.168-.12.339-.329.349-.25.011-.294-.19-.367-.379a2.557,2.557,0,0,1-.107-.764,1.9,1.9,0,0,0-.687-1.414A1,1,0,0,0,611,460.8c-.415.027-.8-.181-1.22-.139a.309.309,0,0,1-.322-.174c-.065-.145.049-.239.132-.336a2.128,2.128,0,0,1,2.259-.548A2,2,0,0,1,613.3,461.4c.015.241.1.46.137.738" transform="translate(-556.502 -419.625)" fill="#f9cab6"/>
    <path id="Path_7276" data-name="Path 7276" d="M335.644,637.07a6.3,6.3,0,0,0,2.482,3.472,11.679,11.679,0,0,0,3.442,1.929,2.4,2.4,0,0,1,.76.332c-.241.241-.512.034-.715-.022a11.222,11.222,0,0,1-5.369-2.991,2.722,2.722,0,0,1-.815-2.363c.022-.155.031-.306.215-.358" transform="translate(-306.345 -581.726)" fill="#a57661"/>
    <path id="Path_7277" data-name="Path 7277" d="M586.993,652.558a.427.427,0,0,1-.474.375l-.027,0a.332.332,0,0,1-.308-.4.4.4,0,0,1,.413-.385h.013a.388.388,0,0,1,.385.391c0,.009,0,.018,0,.026" transform="translate(-535.271 -595.482)" fill="#040303"/>
    <path id="Path_7278" data-name="Path 7278" d="M419.1,703.527a.209.209,0,0,1,.284.071c-.14.159-.22.073-.284-.071" transform="translate(-382.752 -642.365)" fill="#a57661"/>
    <path id="Path_7279" data-name="Path 7279" d="M321.855,265.539a3.944,3.944,0,0,1,.358-2.266.94.94,0,0,1,.564-.562,4.241,4.241,0,0,0-.017,3.082,2.547,2.547,0,0,0,.622,1c.382-.431.731-.784.53-1.425a2.669,2.669,0,0,1,.207-2.013c.153-.311.267-.69.708-.738l-.009-.009a9.968,9.968,0,0,0-.447,1.353,1.954,1.954,0,0,0,.111,1.387c.436-.36.872-.7,1.289-1.065.139-.12.087-.327.139-.49a1.875,1.875,0,0,1,.7-1.183c.015.471-.415.815-.2,1.3a14.655,14.655,0,0,1,1.664-.4c.167-.017.23-.183.315-.307a1.647,1.647,0,0,1,.486-.516c.076-.046.156-.087.234-.017s.042.153-.008.227a1.6,1.6,0,0,0-.36.62,10.75,10.75,0,0,1,1.9.632,3.966,3.966,0,0,0-.4,2.389,1.9,1.9,0,0,0,.211.745,6.759,6.759,0,0,1-1.569,8.216,5.414,5.414,0,0,1-3.939,1.561,2.759,2.759,0,0,1-2.389-1.431,6.95,6.95,0,0,1-.553-5.82,7.135,7.135,0,0,1,.674-1.685.735.735,0,0,0-.071-.939,4.813,4.813,0,0,1-.68-1.325.376.376,0,0,0-.075-.321m1,7.146a6.3,6.3,0,0,0,.573,2.6,1.68,1.68,0,0,0,1.629.968,4.512,4.512,0,0,0,2.983-1.107,6.438,6.438,0,0,0,2.037-2.886,5.062,5.062,0,0,0-.732-4.985,2.8,2.8,0,0,0-4.492-.044,9.785,9.785,0,0,0-2,5.452Zm7.274-8.256a4.85,4.85,0,0,0-1.268-.229c-.142-.012-.271.042-.257.212a1.808,1.808,0,0,0,.854,1.677,4.377,4.377,0,0,1,.671-1.661Zm-2.28-.081a1.379,1.379,0,0,0-.617.117,5,5,0,0,0-.481.18c-.229.083-.228.214-.1.39a1.347,1.347,0,0,0,1.177.274c.256-.154.047-.431.082-.649a.391.391,0,0,0-.063-.312m-2.025.882c-.1.015-.125.1-.129.184a.279.279,0,0,0,.167.044.1.1,0,0,0,.1-.1.107.107,0,0,0,0-.027c-.02-.064-.051-.117-.142-.1Zm-.241.3c-.012-.014-.024-.038-.037-.04s-.03.02-.046.03c.013.014.024.038.038.039s.031-.019.045-.03" transform="translate(-293.772 -239.9)" fill="#040303"/>
    <path id="Path_7280" data-name="Path 7280" d="M295.332,296.22a.376.376,0,0,1,.073.319,12.822,12.822,0,0,0-1.794,4.679,9.665,9.665,0,0,0-.232,1.27,4.783,4.783,0,0,0,.287,1.71,6.856,6.856,0,0,0,.6,1.5,1.283,1.283,0,0,1,.248.59l-.007.007c-.316-.037-.474-.281-.633-.508a6.7,6.7,0,0,1-1.292-3.193,5.6,5.6,0,0,1,.332-2.092c.14-.5.3-.988.449-1.482a.419.419,0,0,0,.132-.261.414.414,0,0,0,.128-.261c.409-.567.726-1.2,1.167-1.743a2.353,2.353,0,0,1,.539-.537" transform="translate(-267.249 -270.581)" fill="#f99067"/>
    <path id="Path_7281" data-name="Path 7281" d="M451.727,383.593a2.694,2.694,0,0,1-1.569-1.168,4.974,4.974,0,0,1-.9-2.864,1.088,1.088,0,0,1,.043-.318.262.262,0,0,1,.231-.2.233.233,0,0,1,.254.158,4.485,4.485,0,0,1,.247.734,16.5,16.5,0,0,0,.92,2.622c.158.425.557.655.784,1.023Z" transform="translate(-410.282 -346.185)" fill="#f99067"/>
    <path id="Path_7282" data-name="Path 7282" d="M479.1,432.68a1.182,1.182,0,0,1,.184.01c.087.012.174.056.125.152s-.142.042-.2-.013a.961.961,0,0,1-.108-.146Z" transform="translate(-437.523 -395.149)" fill="#f99067"/>
    <path id="Path_7283" data-name="Path 7283" d="M450.976,337.11c0,.061,0,.124-.005.184a.275.275,0,0,1-.043.1c-.078-.022-.08-.087-.057-.146a.594.594,0,0,1,.111-.136Z" transform="translate(-411.743 -307.908)" fill="#a93e14"/>
    <path id="Path_7284" data-name="Path 7284" d="M566.79,268.669c.061-.079.181-.1.207-.037.041.1-.087.081-.152.1l-.056-.061" transform="translate(-517.571 -245.362)" fill="#040303"/>
    <path id="Path_7285" data-name="Path 7285" d="M452.216,335.417l.039-.167c.118.092.008.118-.045.162Z" transform="translate(-412.977 -306.21)" fill="#a93e14"/>
    <path id="Path_7286" data-name="Path 7286" d="M358.232,262.179v-.049s-.013.039-.012.04Z" transform="translate(-327.177 -239.462)" fill="#040303"/>
    <path id="Path_7287" data-name="Path 7287" d="M477.615,431.16a.093.093,0,1,1-.005.007Z" transform="translate(-436.163 -393.761)" fill="#f99067"/>
    <path id="Path_7288" data-name="Path 7288" d="M314.827,411.75l.058.061-.065-.054Z" transform="translate(-287.56 -376.043)" fill="#f99067"/>
    <path id="Path_7289" data-name="Path 7289" d="M518.953,335.8a4.873,4.873,0,0,1-.319,1.8,3.389,3.389,0,0,1-1.556,1.922,1.724,1.724,0,0,1-2.631-.939,5.956,5.956,0,0,1-.151-3.132,4.613,4.613,0,0,1,1.181-2.476,2.236,2.236,0,0,1,.89-.628,1.577,1.577,0,0,1,2.117.831,5.06,5.06,0,0,1,.47,2.627m-1.79-1.2a2.959,2.959,0,0,0-.112-.541.573.573,0,0,0-.9-.281,1.434,1.434,0,0,0-.349,1.7.652.652,0,0,0,1.127.016A1.741,1.741,0,0,0,517.163,334.594Zm.5,2.7c.008-.3-.143-.5-.384-.5a.679.679,0,0,0-.555.7.47.47,0,0,0,.409.5c.281.011.52-.3.531-.7Z" transform="translate(-469.529 -303.431)" fill="#040303"/>
    <path id="Path_7290" data-name="Path 7290" d="M410.642,516.11a11.634,11.634,0,0,1,.336,4.118,15.1,15.1,0,0,1-1.8,5.926,6.771,6.771,0,0,1-3.155,2.888,9.072,9.072,0,0,1-3.634.872,15.962,15.962,0,0,1-4.125-.4c-.19-.043-.375-.107-.56-.166-.714-.224-1.427-.45-1.293-1.437a21.816,21.816,0,0,0-2.538-6.018c-.116-.182-.222-.371-.334-.557a1.146,1.146,0,0,1,.512.035,15.048,15.048,0,0,0,3.147.368,19.543,19.543,0,0,0,3.548-.316,15.937,15.937,0,0,0,9.895-5.316" transform="translate(-359.42 -471.308)" fill="#fff"/>
    <path id="Path_7291" data-name="Path 7291" d="M402.171,506.05a15.9,15.9,0,0,1-9.9,5.31,19.545,19.545,0,0,1-3.548.315,15.039,15.039,0,0,1-3.147-.368,1.147,1.147,0,0,0-.512-.035l-.809-1.008a2.759,2.759,0,0,1,1.133.133,17.512,17.512,0,0,0,4.906.261,22.417,22.417,0,0,0,4.4-.784,13.464,13.464,0,0,0,6.805-4.432c.107-.13.185-.3.4-.354a1.64,1.64,0,0,1,.27.96" transform="translate(-350.948 -461.248)" fill="#8d9db5"/>
    <path id="Path_7292" data-name="Path 7292" d="M335.7,309.512a9.8,9.8,0,0,1,2-5.454,2.8,2.8,0,0,1,4.492.044,5.081,5.081,0,0,1,.732,4.985,6.439,6.439,0,0,1-2.037,2.886,4.517,4.517,0,0,1-2.983,1.107,1.671,1.671,0,0,1-1.629-.968,6.3,6.3,0,0,1-.573-2.6m1.432.336a2.873,2.873,0,0,0,.153,1.05,1.33,1.33,0,0,0,2.059.8,2.32,2.32,0,0,0,.615-.471,6.411,6.411,0,0,0,1.656-3.724,2.269,2.269,0,0,0-1.126-2.126,1.192,1.192,0,0,0-1.175-.112,2.643,2.643,0,0,0-1.36,1.239,7.2,7.2,0,0,0-.823,3.339" transform="translate(-306.62 -276.728)" fill="#fff"/>
    <path id="Path_7293" data-name="Path 7293" d="M403.174,281.015a4.377,4.377,0,0,0-.671,1.656,1.808,1.808,0,0,1-.854-1.677c-.014-.17.115-.224.257-.212a5.009,5.009,0,0,1,1.268.233" transform="translate(-366.821 -256.488)" fill="#fd5d1d"/>
    <path id="Path_7294" data-name="Path 7294" d="M379.546,282.436a.39.39,0,0,1,.063.312c-.035.219.174.494-.082.649a1.345,1.345,0,0,1-1.177-.274c-.13-.174-.131-.308.1-.39a5,5,0,0,1,.481-.18,1.319,1.319,0,0,1,.617-.117" transform="translate(-345.472 -257.988)" fill="#fd5d1d"/>
    <path id="Path_7295" data-name="Path 7295" d="M368.389,292.632c.087-.021.122.032.139.1a.1.1,0,0,1-.074.128.108.108,0,0,1-.027,0,.278.278,0,0,1-.167-.044c0-.085.032-.169.129-.184" transform="translate(-336.343 -267.301)" fill="#a93e14"/>
    <path id="Path_7296" data-name="Path 7296" d="M366.124,295.7c-.015.01-.031.031-.045.03s-.025-.025-.038-.039c.016-.01.032-.031.046-.031s.026.03.038.04" transform="translate(-334.316 -270.07)" fill="#a93e14"/>
    <path id="Path_7297" data-name="Path 7297" d="M532.849,349.775a1.724,1.724,0,0,1-.233.892.652.652,0,0,1-1.127-.016,1.438,1.438,0,0,1,.349-1.7.572.572,0,0,1,.9.281,2.955,2.955,0,0,1,.113.541" transform="translate(-485.215 -318.611)" fill="#fff"/>
    <path id="Path_7298" data-name="Path 7298" d="M544.469,385.348c-.01.4-.25.712-.531.7a.469.469,0,0,1-.409-.5.681.681,0,0,1,.555-.7c.241,0,.392.2.384.5" transform="translate(-496.338 -351.487)" fill="#fff"/>
    <path id="Path_7299" data-name="Path 7299" d="M352.059,333.017a7.261,7.261,0,0,1,.819-3.339,2.64,2.64,0,0,1,1.36-1.239,1.193,1.193,0,0,1,1.175.112,2.264,2.264,0,0,1,1.126,2.126,6.41,6.41,0,0,1-1.656,3.724,2.319,2.319,0,0,1-.615.471,1.33,1.33,0,0,1-2.059-.8,2.934,2.934,0,0,1-.15-1.05m1.16-2.009c-.013.247.023.41.194.509a.411.411,0,0,0,.523-.108,1.83,1.83,0,0,0,.6-1.313.437.437,0,0,0-.261-.472.466.466,0,0,0-.562.2,2.989,2.989,0,0,0-.49,1.181m.965,2.4c.257,0,.567-.365.579-.688.008-.223-.087-.381-.328-.394-.257-.014-.616.364-.628.647a.4.4,0,0,0,.36.43h.018Z" transform="translate(-321.548 -299.898)" fill="#040303"/>
    <path id="Path_7300" data-name="Path 7300" d="M365.414,344.167a2.988,2.988,0,0,1,.49-1.181.465.465,0,0,1,.562-.2.432.432,0,0,1,.261.472,1.83,1.83,0,0,1-.6,1.313.412.412,0,0,1-.523.108c-.172-.1-.207-.267-.194-.509" transform="translate(-333.743 -313.057)" fill="#fff"/>
    <path id="Path_7301" data-name="Path 7301" d="M372.537,375.148a.4.4,0,0,1-.379-.413c0-.007,0-.015,0-.022.012-.282.371-.661.628-.647.241.013.336.174.328.394-.013.323-.322.687-.579.688" transform="translate(-339.901 -341.642)" fill="#fff"/>
  </g>
</svg>
