<svg id="Group_429" data-name="Group 429" xmlns="http://www.w3.org/2000/svg" xmlns:xlink="http://www.w3.org/1999/xlink" width="55.237" height="52" viewBox="0 0 55.237 52">
  <defs>
    <linearGradient id="linear-gradient" x1="0.5" x2="0.5" y2="1" gradientUnits="objectBoundingBox">
      <stop offset="0" stop-color="#ff5e5b"/>
      <stop offset="1" stop-color="#ddbee4"/>
    </linearGradient>
    <clipPath id="clip-path">
      <rect id="Rectangle_94" data-name="Rectangle 94" width="55.237" height="52" fill="url(#linear-gradient)"/>
    </clipPath>
  </defs>
  <g id="Group_428" data-name="Group 428" clip-path="url(#clip-path)">
    <path id="Path_7434" data-name="Path 7434" d="M26.253,51.992A25.992,25.992,0,1,1,50.528,17.467a3.507,3.507,0,0,0,2.011,2.484,6.331,6.331,0,0,1,1.793,1.271,2.329,2.329,0,0,1-.03,3.708,4.045,4.045,0,0,1-1.07.774c-1.08.446-1.3,1.265-1.367,2.344A25.911,25.911,0,0,1,29.554,51.744a21.461,21.461,0,0,1-3.3.249M46.862,14.74A23.507,23.507,0,0,0,21.935,2.532a23.843,23.843,0,0,0-2.519,46.391C30.211,52,40.623,46.951,45.2,39.865a37.75,37.75,0,0,1-4.783.451,29.451,29.451,0,0,1-10.81-.821,22.406,22.406,0,0,0-8.42-1.044c-.711.081-1.291-.128-1.455-.9-.131-.62.427-1.112,1.338-1.237.194-.027.392-.025.588-.041a17.587,17.587,0,0,1,6.846.708c5.68,1.834,11.443,1.376,17.221.718a2.046,2.046,0,0,0,1.758-1.319,25.966,25.966,0,0,0,2.181-7.462,1.7,1.7,0,0,0-.111-1.278c-.1-.034-.2-.1-.281-.087-.291.038-.579.1-.865.159a13.248,13.248,0,0,1-10.574-1.844,1.486,1.486,0,0,0-1.852.006A14.614,14.614,0,0,1,25.509,27.8a11.966,11.966,0,0,1-5.542-2.6,2.352,2.352,0,0,1-.284-3.62,5.653,5.653,0,0,1,.914-.739c4.547-3.12,11.133-3.627,15.823-.376a1.313,1.313,0,0,0,1.7.026,14.865,14.865,0,0,1,5.336-2.024,27.547,27.547,0,0,1,5-.127c.038-.782-.516-.909-1.02-1.1a13.007,13.007,0,0,0-6.539-.492c-.92.132-1.819.411-2.736.576a1,1,0,0,1-1.237-.778.978.978,0,0,1,.613-1.194,2.856,2.856,0,0,1,.689-.255,19.712,19.712,0,0,1,3.913-.655,20.121,20.121,0,0,1,4.722.289m6.093,8.515a1.355,1.355,0,0,0-.715-.969C48.292,19.524,42.62,20,38.8,22.611c-.7.482-.688.816.036,1.35a10.086,10.086,0,0,0,5.335,1.89,12.532,12.532,0,0,0,8.786-2.6M21.178,23.3a3.239,3.239,0,0,0,.361.418c4.049,3.114,9.788,2.686,13.791.032.7-.467.692-.847.059-1.379a5.433,5.433,0,0,0-.733-.489,12.353,12.353,0,0,0-13.176.994,2.3,2.3,0,0,0-.3.424" transform="translate(0 0)" fill="url(#linear-gradient)"/>
    <path id="Path_7435" data-name="Path 7435" d="M79.535,48.989a11.088,11.088,0,0,1,3.647.365,7.582,7.582,0,0,1,1.245.447c.587.281.971.734.681,1.417a1.026,1.026,0,0,1-1.466.554,12.032,12.032,0,0,0-4.487-.672,17.636,17.636,0,0,0-3.64.489c-.287.065-.571.147-.861.2-.854.152-1.373-.093-1.53-.71-.152-.6.185-1.1,1.041-1.351a16.987,16.987,0,0,1,3.9-.734c.49-.025.982,0,1.473,0" transform="translate(-51.532 -34.525)" fill="url(#linear-gradient)"/>
    <path id="Path_7436" data-name="Path 7436" d="M36.6,50.853a7.625,7.625,0,0,1,2.954-5.675,1.028,1.028,0,0,1,1.566.092,1,1,0,0,1-.124,1.449c-.331.359-.71.679-1.009,1.063A4.255,4.255,0,0,0,38.9,51.443a1.111,1.111,0,0,1-.816,1.482c-.613.174-1.059-.2-1.3-1.063-.1-.374-.147-.764-.192-1.009" transform="translate(-25.803 -31.63)" fill="url(#linear-gradient)"/>
    <path id="Path_7437" data-name="Path 7437" d="M101.9,97.563a5.63,5.63,0,0,1-.687-.108.985.985,0,0,1-.811-1.069.929.929,0,0,1,.909-.975,12.046,12.046,0,0,0,4.633-1.288,1.018,1.018,0,0,1,1.489.486c.324.67-.045,1.141-.614,1.443a13.626,13.626,0,0,1-4.919,1.51" transform="translate(-70.79 -66.26)" fill="url(#linear-gradient)"/>
    <path id="Path_7438" data-name="Path 7438" d="M136.528,98.938a16.082,16.082,0,0,1-4.436-.915c-.8-.284-1.121-.856-.879-1.437a1.088,1.088,0,0,1,1.465-.607,19.5,19.5,0,0,0,4.6.862.99.99,0,0,1,1.018,1.044,1.06,1.06,0,0,1-1.037,1.047,5.317,5.317,0,0,1-.732.006" transform="translate(-92.458 -67.619)" fill="url(#linear-gradient)"/>
    <path id="Path_7439" data-name="Path 7439" d="M55.747,129.784a3.781,3.781,0,0,1-3.32-4.345,1.062,1.062,0,0,1,1-.911,1.026,1.026,0,0,1,1.06.83.936.936,0,0,1,.04.288,1.863,1.863,0,0,0,1.61,2.09.979.979,0,0,1,.791,1.216.992.992,0,0,1-1.181.832" transform="translate(-36.912 -87.799)" fill="url(#linear-gradient)"/>
    <path id="Path_7440" data-name="Path 7440" d="M149.495,73.574a2.246,2.246,0,0,1-2.157,2.166,2.131,2.131,0,0,1-.077-4.254,2.248,2.248,0,0,1,2.234,2.088" transform="translate(-102.447 -50.402)" fill="url(#linear-gradient)"/>
    <path id="Path_7441" data-name="Path 7441" d="M90.51,75.741a2.168,2.168,0,0,1-2.07-2.074,2.144,2.144,0,0,1,2.106-2.177,2.125,2.125,0,0,1-.036,4.251" transform="translate(-62.356 -50.405)" fill="url(#linear-gradient)"/>
  </g>
</svg>
