<svg id="Group_431" data-name="Group 431" xmlns="http://www.w3.org/2000/svg" xmlns:xlink="http://www.w3.org/1999/xlink" width="51.992" height="52" viewBox="0 0 51.992 52">
  <defs>
    <linearGradient id="linear-gradient" x1="0.5" x2="0.5" y2="1" gradientUnits="objectBoundingBox">
      <stop offset="0" stop-color="#ff5e5b"/>
      <stop offset="1" stop-color="#ddbee4"/>
    </linearGradient>
    <clipPath id="clip-path">
      <rect id="Rectangle_95" data-name="Rectangle 95" width="51.992" height="52" fill="url(#linear-gradient)"/>
    </clipPath>
  </defs>
  <g id="Group_430" data-name="Group 430" clip-path="url(#clip-path)">
    <path id="Path_7442" data-name="Path 7442" d="M0,111.013a1.417,1.417,0,0,1,1.332-.642c2.1.026,4.195.01,6.293.01.135,0,.272-.007.406.007a1.036,1.036,0,0,1,0,2.06c-.151.015-.3.007-.456.008H2.08v14.087c.352.1,5.927.133,6.772.041a.9.9,0,0,0,.056-.536c.005-1.489,0-2.977,0-4.466a3.07,3.07,0,0,1,6.085-.6,3.535,3.535,0,0,1,.046.707c0,1.455,0,2.91,0,4.364v.536h6.828V112.522c-.148-.125-.342-.062-.52-.062-1.658-.006-3.315,0-4.973,0-.152,0-.306.008-.456-.008a1.037,1.037,0,0,1,0-2.061.487.487,0,0,1,.051,0c2.334,0,4.669-.008,7,0a.987.987,0,0,1,1,1.005c.008.152,0,.3,0,.457q0,3.654,0,7.308a1,1,0,0,0,.073.579l4.815-1.061a11.047,11.047,0,0,1-1.281-1.19,6.662,6.662,0,0,1-1.636-4.06,36.128,36.128,0,0,1,.029-5.068,6.483,6.483,0,0,1,2.676-4.71,6.872,6.872,0,0,1,10.922,4.261,6.6,6.6,0,0,1,.122,1.311c-.01,1.2,0,2.4,0,3.6a6.891,6.891,0,0,1-2.707,5.64c-.053.042-.1.088-.151.134-.011.01-.013.029-.039.092.787.175,1.566.351,2.346.523.676.149,1.356.28,2.028.442a5.922,5.922,0,0,1,3.32,2.106.724.724,0,0,0,.641.3c1.81-.01,3.62-.005,5.43-.005.152,0,.3-.006.457,0a1.009,1.009,0,0,1,.968.985c.009.135,0,.271,0,.406q0,7.764,0,15.529c0,.152.007.305-.007.456a1.013,1.013,0,0,1-.919.927,4.044,4.044,0,0,1-.406.007q-24.663,0-49.326.01A1.437,1.437,0,0,1,0,139.738v-4.872a1.4,1.4,0,0,1,1.332-.642c1.284.034,2.57.012,3.856.008a.634.634,0,0,0,.479-.091,3.185,3.185,0,0,1,.8-2.5,3.262,3.262,0,0,1,2.41-1.089V128.7h-.59c-2.317,0-4.634-.015-6.951.011A1.425,1.425,0,0,1,0,128.065Zm36.2,9.765c-.074.181-.141.335-.2.492q-.676,1.8-1.349,3.6c-.284.759-.557,1.522-.851,2.277a1.037,1.037,0,0,1-1.237.721,1.123,1.123,0,0,1-.817-.818q-1.063-2.874-2.146-5.741a1.2,1.2,0,0,0-.258-.538,1.178,1.178,0,0,0-.455.042c-.576.128-1.155.245-1.731.376-.888.2-1.78.392-2.66.626-.523.139-.515.172-.516.7,0,1.674,0,3.348,0,5.022a1.03,1.03,0,0,1-1.161,1.152c-.3,0-.6,0-.923,0v5.493c.8.1,14.664.064,15.033-.043v-.6c0-3.416.016-6.832-.012-10.247a1.145,1.145,0,0,1,1.235-1.255c.979.043,1.961.011,2.942.011H41.6a33.726,33.726,0,0,0-5.4-1.276m13.7,15.558H2.086v1.921H49.891ZM28.027,111.664a14.681,14.681,0,0,0,.085,2.257,4.776,4.776,0,0,0,9.332.214,13.244,13.244,0,0,0,.122-2.829c0-.2-.156-.284-.3-.37-.67-.393-1.348-.775-2.008-1.185a.44.44,0,0,0-.618.052,7.272,7.272,0,0,1-3.135,1.584,12.361,12.361,0,0,1-2.671.212,2.309,2.309,0,0,0-.806.065m9.544-3.034a4.7,4.7,0,0,0-2.576-3.746,4.554,4.554,0,0,0-5.015.4,4.63,4.63,0,0,0-1.947,4.2H29.85a5.325,5.325,0,0,0,2.872-.845,5.657,5.657,0,0,0,1.11-.955,1.1,1.1,0,0,1,1.615-.233c.5.285.987.584,1.484.871a2.209,2.209,0,0,0,.639.315m12.321,15.526H39v1.921H49.891Zm-10.869,5.99H49.883v-1.922H39.022Zm10.892,4.041c0-.585,0-1.141,0-1.7a.227.227,0,0,0-.048-.189c-.479-.076-10.389-.072-10.832.007V134.2c.52.054,10.39.05,10.881-.009m-36.965-3.63c.009-.127.019-.21.019-.292q0-4.262,0-8.524a1.345,1.345,0,0,0-.077-.5.965.965,0,0,0-1.826-.017,1.645,1.645,0,0,0-.082.649q0,4.11,0,8.22a.8.8,0,0,0,.059.463Zm2.118.006a3.227,3.227,0,0,1,2.451,1.109,3.421,3.421,0,0,1,.782,2.566,9.655,9.655,0,0,0,1.443-.049,45.875,45.875,0,0,0-.052-5.464H15.067Zm1.114,3.654c.1-1.077-.316-1.559-1.316-1.561-1.959,0-3.918.014-5.877-.009a1.169,1.169,0,0,0-1.179,1.57Zm16.56-10.471.092,0,1.495-4a9.734,9.734,0,0,1-3.079.005l1.493,3.993" transform="translate(0 -88.379)" fill="url(#linear-gradient)"/>
    <path id="Path_7443" data-name="Path 7443" d="M10.556,0c.63.179,1.287.244,1.9.481a9.211,9.211,0,0,1,6.235,7.528A9.411,9.411,0,1,1,.072,10.741.835.835,0,0,0,0,10.556V8.222a.979.979,0,0,0,.072-.183A9.3,9.3,0,0,1,6.808.341C7.267.192,7.75.112,8.222,0ZM9.346,16.727a7.331,7.331,0,1,0-7.28-7.369,7.323,7.323,0,0,0,7.28,7.369" fill="url(#linear-gradient)"/>
    <path id="Path_7444" data-name="Path 7444" d="M81.772,162.284a1.036,1.036,0,1,1-1.077.978,1.02,1.02,0,0,1,1.077-.978" transform="translate(-69.752 -140.278)" fill="url(#linear-gradient)"/>
    <path id="Path_7445" data-name="Path 7445" d="M61.46,28.779c0-.692,0-1.384,0-2.076a2.439,2.439,0,0,1,.06-.6,1.024,1.024,0,0,1,.927-.8A1.036,1.036,0,0,1,63.5,26a1.827,1.827,0,0,1,.081.649c0,1.266.006,2.532-.005,3.8a.818.818,0,0,0,.272.668,11.136,11.136,0,0,1,.961.971,1.022,1.022,0,0,1-.6,1.712.967.967,0,0,1-.884-.268c-.524-.5-1.035-1.018-1.543-1.536a1.322,1.322,0,0,1-.321-.984q0-1.114,0-2.228" transform="translate(-53.125 -21.868)" fill="url(#linear-gradient)"/>
  </g>
</svg>
