<svg id="Group_427" data-name="Group 427" xmlns="http://www.w3.org/2000/svg" xmlns:xlink="http://www.w3.org/1999/xlink" width="97.997" height="52" viewBox="0 0 97.997 52">
  <defs>
    <linearGradient id="linear-gradient" x1="0.5" x2="0.5" y2="1" gradientUnits="objectBoundingBox">
      <stop offset="0" stop-color="#ff5e5b"/>
      <stop offset="1" stop-color="#ddbee4"/>
    </linearGradient>
    <clipPath id="clip-path">
      <rect id="Rectangle_93" data-name="Rectangle 93" width="97.997" height="52" fill="url(#linear-gradient)"/>
    </clipPath>
  </defs>
  <g id="Group_426" data-name="Group 426" transform="translate(0 0)" clip-path="url(#clip-path)">
    <path id="Path_7428" data-name="Path 7428" d="M24.49,26.564c-1.6,0-3.2-.029-4.792.012a2.3,2.3,0,0,1-1.884-.759c-.94-1-1.966-1.926-2.9-2.937a2.422,2.422,0,0,0-2-.8c-1.817.044-3.639.064-5.457,0a2.057,2.057,0,0,0-1.884.932,3.021,3.021,0,0,1-3.474.973A3.214,3.214,0,0,1,0,21.019a3.157,3.157,0,0,1,2.069-2.972,2.865,2.865,0,0,1,3.373.837A2.433,2.433,0,0,0,7.818,19.9c2.084-.06,4.171.008,6.257-.019a2.186,2.186,0,0,1,1.764.72c.971,1.035,2.018,2,2.994,3.03a2.211,2.211,0,0,0,1.755.745c2.928-.029,5.857,0,8.786-.014,1.243-.006,1.266-.031,1.273-1.277.013-2.308.036-4.616-.011-6.922A1.864,1.864,0,0,1,31.7,14.254c5.478-3.11,10.926-6.273,16.369-9.446A1.622,1.622,0,0,1,49.914,4.8q8.223,4.79,16.481,9.519a1.685,1.685,0,0,1,.97,1.693c-.042,2.351-.022,4.7-.011,7.056.007,1.257.031,1.289,1.255,1.295,2.974.012,5.946-.007,8.92.012a1.955,1.955,0,0,0,1.53-.637c1.014-1.056,2.085-2.058,3.091-3.121a2.186,2.186,0,0,1,1.756-.732c2.218.033,4.438-.009,6.656.018a1.939,1.939,0,0,0,1.8-.81,3.051,3.051,0,0,1,4.577-.432,3.127,3.127,0,0,1,.08,4.616A3.044,3.044,0,0,1,92.436,23,2.25,2.25,0,0,0,90.4,22.08c-1.73.039-3.462.049-5.19,0a2.64,2.64,0,0,0-2.231.9c-.829.923-1.789,1.73-2.611,2.658a2.772,2.772,0,0,1-2.346.944c-3.106-.05-6.212-.024-9.318-.016-1.331,0-1.346.017-1.351,1.326-.011,2.352-.029,4.7.011,7.056a1.588,1.588,0,0,1-.921,1.586q-8.317,4.76-16.593,9.589a1.6,1.6,0,0,1-1.83-.08q-6.155-3.58-12.328-7.13c-1.382-.8-2.746-1.632-4.154-2.382a1.55,1.55,0,0,1-.9-1.6c.038-2.307.02-4.615.012-6.922,0-1.437-.013-1.442-1.5-1.448-1.553-.006-3.107,0-4.66,0m8.494-1.132h.006c0,2.749.019,5.5-.012,8.247a1.6,1.6,0,0,0,.912,1.59q7.16,4.088,14.277,8.252a1.49,1.49,0,0,0,1.71-.029q7.065-4.121,14.168-8.176a1.7,1.7,0,0,0,.983-1.683q-.042-8.18,0-16.362a1.72,1.72,0,0,0-.976-1.7q-7.107-4.051-14.166-8.18a1.548,1.548,0,0,0-1.8.026q-7,4.094-14.055,8.106a1.9,1.9,0,0,0-1.055,1.927c.039,2.66.014,5.32.014,7.981M95.7,21.007c-.091-.51-.362-.832-.892-.812a.752.752,0,0,0-.787.87.782.782,0,0,0,.862.816.843.843,0,0,0,.817-.873m-91.7-.094a.783.783,0,0,0-.857-.717.84.84,0,0,0,.078,1.677c.5-.03.752-.382.779-.96" transform="translate(0 0.495)" fill="url(#linear-gradient)"/>
    <path id="Path_7429" data-name="Path 7429" d="M68.625,18.177c0-.932-.055-1.868.016-2.795a1.8,1.8,0,0,0-1.076-1.907c-3.517-1.983-7-4.022-10.5-6.04-2.613-1.507-5.251-2.975-7.83-4.539a1.914,1.914,0,0,0-2.279.031Q37.942,8.21,28.855,13.37A2.131,2.131,0,0,0,27.6,15.577c.081,1.949.037,3.9.018,5.857-.011,1.076-.065,1.132-1.137,1.143-1.953.021-3.907-.019-5.858.022a2.36,2.36,0,0,1-1.87-.8c-1.766-1.811-3.582-3.574-5.352-5.38a1.833,1.833,0,0,0-1.843-.664,3.1,3.1,0,0,1-3.492-2.571,3.169,3.169,0,0,1,6.065-1.725,2.634,2.634,0,0,1,.165,1.568,1.68,1.68,0,0,0,.628,1.748q2.478,2.415,4.9,4.894a2.145,2.145,0,0,0,1.762.723c.885-.043,1.774,0,2.662-.013,1.147-.019,1.165-.029,1.176-1.226.014-1.687.05-3.375-.014-5.06A1.946,1.946,0,0,1,26.551,12.1Q36.61,6.36,46.6.509a2.524,2.524,0,0,1,2.98-.043c6.648,3.923,13.343,7.77,20.05,11.594a2.012,2.012,0,0,1,1.215,2.1c-.087,1.638-.032,3.283-.02,4.925.01,1.27.031,1.279,1.239,1.3,3.568.07,3.568.07,6.091-2.459.941-.943,1.851-1.92,2.833-2.816a2.519,2.519,0,0,0,.973-2.4,2.949,2.949,0,0,1,2.7-3.222,3.156,3.156,0,0,1,3.476,2.443,3.122,3.122,0,0,1-3.383,3.83,2,2,0,0,0-1.957.7c-1.735,1.78-3.525,3.505-5.253,5.291a2.481,2.481,0,0,1-1.986.843c-1.952-.047-3.906,0-5.857-.022-1-.011-1.049-.071-1.071-1.072-.024-1.11-.006-2.219-.007-3.329m-56.57-5.509c-.047-.517-.3-.874-.819-.887a.8.8,0,0,0-.887.8.748.748,0,0,0,.8.86.843.843,0,0,0,.909-.774m73.854.059a.824.824,0,0,0-.761-.931.827.827,0,1,0-.178,1.644.787.787,0,0,0,.939-.713" transform="translate(0.877 0)" fill="url(#linear-gradient)"/>
    <path id="Path_7430" data-name="Path 7430" d="M75.415,26.523c1.774,0,3.549-.03,5.324.013a2.138,2.138,0,0,0,1.924-.862,3.155,3.155,0,0,1,4.309-.509,3.225,3.225,0,0,1,.83,4.064,3.117,3.117,0,0,1-5.064.557,2.454,2.454,0,0,0-2.157-.942c-2.706.044-5.412.013-8.119.016-1.635,0-1.639.006-1.642,1.581,0,1.642-.032,3.284.013,4.924a1.576,1.576,0,0,1-.923,1.584q-10.5,6.025-20.969,12.115a1.487,1.487,0,0,1-1.708-.047Q39.528,44.535,31.795,40.1c-1.844-1.064-3.673-2.156-5.534-3.189a1.474,1.474,0,0,1-.855-1.488c.038-1.73.019-3.461.009-5.192-.009-1.358-.018-1.366-1.449-1.369-2.795-.006-5.59.014-8.385-.012a2.257,2.257,0,0,0-2.047.892,3.146,3.146,0,0,1-4.416.364,3.239,3.239,0,0,1-.373-4.439,3.137,3.137,0,0,1,4.785-.03,2.308,2.308,0,0,0,2.045.9c3.549-.026,7.1-.016,10.648-.008,1.377,0,1.385.014,1.39,1.421.008,1.953.041,3.906-.012,5.856a1.874,1.874,0,0,0,1.083,1.907c5.625,3.207,11.212,6.482,16.832,9.7,3.138,1.8,2.075,1.793,5.175.018,5.7-3.263,11.366-6.574,17.066-9.828a1.577,1.577,0,0,0,.875-1.606c-.033-2.084-.021-4.17-.006-6.255.008-1.167.041-1.2,1.2-1.212,1.863-.017,3.726,0,5.59,0m-64.25.3a.9.9,0,0,0-.819.87.874.874,0,0,0,.955.85.822.822,0,0,0,.751-.913.865.865,0,0,0-.888-.807m74.74.838a.872.872,0,0,0-.87-.824.831.831,0,0,0-.867.819.873.873,0,0,0,.919.9.91.91,0,0,0,.818-.891" transform="translate(0.88 2.689)" fill="url(#linear-gradient)"/>
    <path id="Path_7431" data-name="Path 7431" d="M38.188,25.182a55.569,55.569,0,0,1-.162-6.511c-.012-1.5.006-1.5,1.306-1.5,1.343,0,1.378.021,1.38,1.435.008,4.035.016,8.071-.006,12.106,0,.509.277,1.214-.624,1.365a1.4,1.4,0,0,1-1.8-.93c-1.013-2.072-2.013-4.15-3.033-6.217-.105-.212-.085-.55-.439-.588,0,2.207.013,4.409-.006,6.612-.01,1.131-.041,1.134-1.391,1.132-1.208,0-1.288-.044-1.292-1.115q-.02-6.253.006-12.506c0-.482-.216-1.108.583-1.274a1.5,1.5,0,0,1,1.962.85c.991,2.13,1.958,4.272,2.95,6.4.122.26.11.635.564.74" transform="translate(3.517 1.876)" fill="url(#linear-gradient)"/>
    <path id="Path_7432" data-name="Path 7432" d="M41.716,24.658c0-2.037-.009-4.074,0-6.11.008-1.347.028-1.369,1.3-1.379q2.658-.022,5.314,0c1.065.009,1.125.088,1.148,1.131.03,1.284-.07,1.445-1.1,1.487-.884.037-1.772.029-2.656,0-.7-.019-1.019.215-1.066.983-.158,2.584-.186,2.582,2.371,2.59.132,0,.265,0,.4,0,1.358.022,1.841.732,1.417,2.056a.669.669,0,0,1-.678.515c-.4.013-.8.013-1.195.019-2.619.034-2.278-.293-2.308,2.372-.01.842.009,1.683,0,2.524-.02,1.185-.045,1.2-1.177,1.235-.133,0-.265,0-.4,0-1.339-.014-1.36-.02-1.368-1.316-.013-2.036,0-4.073,0-6.11h0" transform="translate(4.57 1.879)" fill="url(#linear-gradient)"/>
    <path id="Path_7433" data-name="Path 7433" d="M52.175,25.822c0-1.594.014-3.189,0-4.783-.014-1.157-.063-1.186-1.2-1.243-1.374-.069-1.881-.841-1.445-2.16a.645.645,0,0,1,.7-.469c2.3,0,4.607.008,6.91,0,.568,0,.8.285.789.821,0,.265-.01.531.006.8.042.753-.352.979-1.054,1.014-1.766.09-1.766.114-1.768,1.851,0,3.012.008,6.025-.01,9.036,0,.455.219,1.1-.373,1.288a3.383,3.383,0,0,1-2.217-.032c-.423-.163-.328-.683-.331-1.072-.009-1.683,0-3.366,0-5.05Z" transform="translate(5.409 1.881)" fill="url(#linear-gradient)"/>
  </g>
</svg>
