<svg xmlns="http://www.w3.org/2000/svg" xmlns:xlink="http://www.w3.org/1999/xlink" width="120" height="120" viewBox="0 0 120 120">
  <defs>
    <linearGradient id="linear-gradient" x1="0.5" x2="0.5" y2="1" gradientUnits="objectBoundingBox">
      <stop offset="0" stop-color="#ff5e5b"/>
      <stop offset="1" stop-color="#ddbee4"/>
    </linearGradient>
    <clipPath id="clip-path">
      <rect id="Rectangle_99" data-name="Rectangle 99" width="54" height="60.443" fill="url(#linear-gradient)"/>
    </clipPath>
  </defs>
  <g id="Group_1789" data-name="Group 1789" transform="translate(-1114 -4008)">
    <g id="List_Them" data-name="List Them" transform="translate(0 1414)">
      <g id="Bg" transform="translate(1114 2594)" fill="#1b1c32" stroke="#ddbee4" stroke-width="2">
        <circle cx="60" cy="60" r="60" stroke="none"/>
        <circle cx="60" cy="60" r="59" fill="none"/>
      </g>
    </g>
    <g id="Group_437" data-name="Group 437" transform="translate(1147 4037.779)">
      <g id="Group_436" data-name="Group 436" clip-path="url(#clip-path)">
        <path id="Path_7453" data-name="Path 7453" d="M27.056,0A23.758,23.758,0,0,1,50.443,20.72,23.45,23.45,0,0,1,47.2,36.3a2.711,2.711,0,0,0,0,3.118c2.1,3.809,4.138,7.653,6.169,11.5,1.278,2.419.614,3.546-2.107,3.74-1.662.118-3.6-.544-4.915.4-1.208.866-1.776,2.61-2.662,3.944-1.323,1.993-2.764,1.924-3.934-.244q-2.719-5.037-5.317-10.137c-.568-1.108-1.028-1.756-2.581-1.325a19.265,19.265,0,0,1-9.971-.047,1.56,1.56,0,0,0-2.126,1c-1.6,3.127-3.244,6.227-4.874,9.337-.248.473-.486.953-.763,1.408-1.127,1.85-2.5,1.929-3.7.171-.73-1.071-1.4-2.19-2.02-3.326A2.006,2.006,0,0,0,6.368,54.7c-1.373.04-2.749-.045-4.124-.06A2.086,2.086,0,0,1,.4,51.292c2.175-3.854,4.135-7.83,6.312-11.683a3.271,3.271,0,0,0-.095-3.727A23.922,23.922,0,0,1,19.641,1.225,21.585,21.585,0,0,1,27.056,0M47.106,23.9A19.949,19.949,0,0,0,27.012,3.523C15.545,3.513,7.043,12.55,6.856,23.931c-.2,12.313,10.947,20.41,20.295,20.4,8.97,0,20.57-8.412,19.955-20.435M10.083,40.645,4.676,50.777c.4.15.619.314.815.292a5.694,5.694,0,0,1,6.449,3.7c.015.034.124.028.418.084l4.817-9.165a27.322,27.322,0,0,1-7.092-5.047M49.31,50.7,43.946,40.73a27.915,27.915,0,0,1-6.024,4.415c-.574.3-1.062.622-.641,1.411,1.489,2.793,2.956,5.6,4.409,8.354a1.429,1.429,0,0,0,.976-.917c.872-2.042,2.255-3.149,4.6-2.8A2.961,2.961,0,0,0,49.31,50.7" transform="translate(0 0)" fill="url(#linear-gradient)"/>
        <path id="Path_7454" data-name="Path 7454" d="M50.056,48.056c-1.125-.35-2.46-.688-3.733-1.184a5.288,5.288,0,0,0-3.971.012,30.421,30.421,0,0,1-3.268,1.024,2.293,2.293,0,0,1-3.168-2.223,27.985,27.985,0,0,1-.04-3.888,4.614,4.614,0,0,0-1.018-3.167,37.91,37.91,0,0,1-2.192-3.211c-.989-1.641-.642-3.169,1.2-3.628a13.609,13.609,0,0,0,8.673-6.439c.906-1.468,2.454-1.314,3.673,0a6.6,6.6,0,0,1,.974,1.268,9.144,9.144,0,0,0,6.4,4.674,6.575,6.575,0,0,1,1.5.552c1.533.763,1.926,1.9,1.082,3.365A24.49,24.49,0,0,1,54.1,38.237a5.476,5.476,0,0,0-1.2,3.812,22.382,22.382,0,0,1-.16,3.879,2.291,2.291,0,0,1-2.686,2.128m2.477-13.374c-1.969-.756-3.657-1.059-4.892-1.974-1.29-.956-2.142-2.5-3.436-4.1-1.588,3.434-4.313,5.169-8.124,5.971a9.86,9.86,0,0,1,3.1,9.407c1.917-.124,3.341-1,4.907-1.171,1.7-.186,3.14,1.15,5.146.921a10.363,10.363,0,0,1,3.3-9.057" transform="translate(-17.314 -13.101)" fill="url(#linear-gradient)"/>
      </g>
    </g>
  </g>
</svg>
