<svg xmlns="http://www.w3.org/2000/svg" xmlns:xlink="http://www.w3.org/1999/xlink" width="120" height="120" viewBox="0 0 120 120">
  <defs>
    <linearGradient id="linear-gradient" x1="0.5" x2="0.5" y2="1" gradientUnits="objectBoundingBox">
      <stop offset="0" stop-color="#ff5e5b"/>
      <stop offset="1" stop-color="#ddbee4"/>
    </linearGradient>
    <clipPath id="clip-path">
      <rect id="Rectangle_98" data-name="Rectangle 98" width="54" height="44.831" fill="url(#linear-gradient)"/>
    </clipPath>
  </defs>
  <g id="Group_1788" data-name="Group 1788" transform="translate(-660 -4008)">
    <g id="Upload" transform="translate(0 1414)">
      <g id="Bg" transform="translate(660 2594)" fill="#1b1c32" stroke="#ddbee4" stroke-width="2">
        <circle cx="60" cy="60" r="60" stroke="none"/>
        <circle cx="60" cy="60" r="59" fill="none"/>
      </g>
    </g>
    <g id="Group_435" data-name="Group 435" transform="translate(305 4045.584)">
      <g id="Group_434" data-name="Group 434" transform="translate(388)" clip-path="url(#clip-path)">
        <path id="Path_7450" data-name="Path 7450" d="M176.024,77.2a13.516,13.516,0,0,1-2.934-.684,7.273,7.273,0,0,1-3.557-2.586,5.345,5.345,0,0,1-.9-3.526.625.625,0,0,1,.07-.166h2.75a.858.858,0,0,1,.084.557,2.755,2.755,0,0,0,1.226,2.386,5.96,5.96,0,0,0,2.461,1.028,1.227,1.227,0,0,0,.765.06V66.567a3.009,3.009,0,0,0-.773-.3,15.074,15.074,0,0,1-3.883-1.822,5.439,5.439,0,0,1-2.41-3.375,5.588,5.588,0,0,1,2.475-5.926,9.068,9.068,0,0,1,4.077-1.41c.541-.059.544-.048.545-.621,0-1.239,0-2.478,0-3.717a1.24,1.24,0,0,1,.459-1.043,1.18,1.18,0,0,1,1.311-.178,1.245,1.245,0,0,1,.749,1.156c.016.664.006,1.329.006,1.993,0,.771,0,1.543,0,2.347.645.135,1.281.216,1.9.388a8.5,8.5,0,0,1,3.62,1.929,5.262,5.262,0,0,1,1.728,4.4c-.013.19-.017.37-.274.37h-2.5a1.2,1.2,0,0,1-.1-.678,2.891,2.891,0,0,0-1.1-2.3,6.042,6.042,0,0,0-3.063-1.2.444.444,0,0,0-.147.031.816.816,0,0,0-.059.48q0,3.313,0,6.626c0,.519,0,.519.529.686a19.106,19.106,0,0,1,3.866,1.606,8.183,8.183,0,0,1,1.9,1.488,5.434,5.434,0,0,1-.071,7.263,7.825,7.825,0,0,1-4.059,2.187c-.7.167-1.414.2-2.1.342a1.06,1.06,0,0,0-.061.552c0,1.006,0,2.011,0,3.017,0,.144.006.288-.006.431a1.318,1.318,0,0,1-1.267,1.232,1.258,1.258,0,0,1-1.244-1.292c-.015-1.131-.005-2.262-.006-3.394,0-.2,0-.392,0-.634m2.55-2.808a2.591,2.591,0,0,0,.862-.081,5.833,5.833,0,0,0,2.451-.892,2.682,2.682,0,0,0,.23-4.4,11.394,11.394,0,0,0-3.542-1.685Zm-2.568-17.882a6.134,6.134,0,0,0-3.016,1,2.737,2.737,0,0,0-.029,4.452,9.852,9.852,0,0,0,2.239,1.144,1.774,1.774,0,0,0,.806.234Z" transform="translate(-150.415 -42.867)" fill="url(#linear-gradient)"/>
        <path id="Path_7451" data-name="Path 7451" d="M7.735,19.6q.893-1.246,1.787-2.492a3.563,3.563,0,0,1,.331-.423,1.27,1.27,0,0,1,1.668-.17,1.294,1.294,0,0,1,.428,1.669,3.469,3.469,0,0,1-.291.452Q9.465,21.7,7.267,24.764a1.365,1.365,0,0,1-1.6.693,1.492,1.492,0,0,1-.783-.623Q3.227,22.512,1.559,20.2c-.45-.627-.921-1.241-1.337-1.89a1.289,1.289,0,0,1,.807-1.987,1.267,1.267,0,0,1,1.4.579c.675.93,1.34,1.866,2.015,2.8.1.14.158.326.372.4.111-.66.205-1.313.331-1.959A21.961,21.961,0,0,1,10.774,7.124a22.157,22.157,0,0,1,8.461-5.678A21.718,21.718,0,0,1,24.392.187,21.681,21.681,0,0,1,27.774.012,22.5,22.5,0,0,1,47.989,14.2a1.445,1.445,0,0,1,.116,1.092,1.271,1.271,0,0,1-1.1.9,1.314,1.314,0,0,1-1.409-.676,5.215,5.215,0,0,1-.22-.491A19.637,19.637,0,0,0,30.743,3.075a16.5,16.5,0,0,0-4.282-.338,19.551,19.551,0,0,0-12.37,5A19.4,19.4,0,0,0,7.943,18.059c-.118.5-.2,1.015-.3,1.522l.091.019" transform="translate(0 0)" fill="url(#linear-gradient)"/>
        <path id="Path_7452" data-name="Path 7452" d="M96.865,197.568c-.186.068-.252.247-.354.389-.547.756-1.085,1.519-1.635,2.273a1.311,1.311,0,0,1-2.316-1.221,3.3,3.3,0,0,1,.316-.5q2.2-3.064,4.4-6.123a2.658,2.658,0,0,1,.345-.411,1.247,1.247,0,0,1,1.712-.012,2.777,2.777,0,0,1,.383.449q2.2,3.061,4.393,6.127a3.259,3.259,0,0,1,.289.453,1.3,1.3,0,0,1-2.048,1.532,3,3,0,0,1-.375-.456c-.6-.83-1.191-1.664-1.79-2.494a1.607,1.607,0,0,0-.389-.464c-.143.625-.27,1.237-.425,1.842a22.427,22.427,0,0,1-42.6,2.528,1.306,1.306,0,0,1,.665-1.8,1.4,1.4,0,0,1,1.863.779,19.006,19.006,0,0,0,3.081,5.278,19.33,19.33,0,0,0,11.949,7,19.753,19.753,0,0,0,22.459-14.7,4.429,4.429,0,0,0,.068-.477c.01-.032.1-.041.029-.1l-.022.1" transform="translate(-50.53 -170.937)" fill="url(#linear-gradient)"/>
      </g>
    </g>
  </g>
</svg>
