<svg xmlns="http://www.w3.org/2000/svg" xmlns:xlink="http://www.w3.org/1999/xlink" width="120" height="120" viewBox="0 0 120 120">
  <defs>
    <linearGradient id="linear-gradient" x1="0.5" x2="0.5" y2="1" gradientUnits="objectBoundingBox">
      <stop offset="0" stop-color="#ff5e5b"/>
      <stop offset="1" stop-color="#ddbee4"/>
    </linearGradient>
    <clipPath id="clip-path">
      <rect id="Rectangle_97" data-name="Rectangle 97" width="54" height="53.895" fill="url(#linear-gradient)"/>
    </clipPath>
  </defs>
  <g id="Group_1790" data-name="Group 1790" transform="translate(-208 -4008)">
    <g id="Wallet" transform="translate(0 1414)">
      <g id="Group_1787" data-name="Group 1787">
        <g id="Bg" transform="translate(208 2594)" fill="#1c1d32">
          <path d="M 60 119 C 52.03461837768555 119 44.30801773071289 117.440185546875 37.03485107421875 114.363899230957 C 33.53906631469727 112.8853149414062 30.16731643676758 111.0551681518555 27.01323318481445 108.92431640625 C 23.88886642456055 106.8135299682617 20.9508171081543 104.3894195556641 18.28070068359375 101.7192993164062 C 15.61058330535889 99.04918670654297 13.18646621704102 96.11112976074219 11.07568359375 92.98676300048828 C 8.944833755493164 89.83267974853516 7.114683151245117 86.46092987060547 5.636099815368652 82.96514892578125 C 2.559816598892212 75.69198608398438 1 67.96538543701172 1 60 C 1 52.03461837768555 2.559816598892212 44.30801773071289 5.636099815368652 37.03485107421875 C 7.114683151245117 33.53906631469727 8.944833755493164 30.16731643676758 11.07568359375 27.01323318481445 C 13.18646621704102 23.88886642456055 15.61058330535889 20.9508171081543 18.28070068359375 18.28070068359375 C 20.9508171081543 15.61058330535889 23.88886642456055 13.18646621704102 27.01323318481445 11.07568359375 C 30.16731643676758 8.944833755493164 33.53906631469727 7.114683151245117 37.03485107421875 5.636099815368652 C 44.30801773071289 2.559816598892212 52.03461837768555 1 60 1 C 67.96538543701172 1 75.69198608398438 2.559816598892212 82.96514892578125 5.636099815368652 C 86.46092987060547 7.114683151245117 89.83267974853516 8.944833755493164 92.98676300048828 11.07568359375 C 96.11112976074219 13.18646621704102 99.04918670654297 15.61058330535889 101.7192993164062 18.28070068359375 C 104.3894195556641 20.9508171081543 106.8135299682617 23.88886642456055 108.92431640625 27.01323318481445 C 111.0551681518555 30.16731643676758 112.8853149414062 33.53906631469727 114.363899230957 37.03485107421875 C 117.440185546875 44.30801773071289 119 52.03461837768555 119 60 C 119 67.96538543701172 117.440185546875 75.69198608398438 114.363899230957 82.96514892578125 C 112.8853149414062 86.46092987060547 111.0551681518555 89.83267974853516 108.92431640625 92.98676300048828 C 106.8135299682617 96.11112976074219 104.3894195556641 99.04918670654297 101.7192993164062 101.7192993164062 C 99.04918670654297 104.3894195556641 96.11112976074219 106.8135299682617 92.98676300048828 108.92431640625 C 89.83267974853516 111.0551681518555 86.46092987060547 112.8853149414062 82.96514892578125 114.363899230957 C 75.69198608398438 117.440185546875 67.96538543701172 119 60 119 Z" stroke="none"/>
          <path d="M 60 2 C 52.16916656494141 2 44.57363128662109 3.533233642578125 37.42440032958984 6.557098388671875 C 33.98808288574219 8.010551452636719 30.67361450195312 9.809600830078125 27.57305145263672 11.904296875 C 24.50141906738281 13.97944641113281 21.6129150390625 16.36268615722656 18.98780059814453 18.98780059814453 C 16.36268615722656 21.6129150390625 13.97944641113281 24.50141906738281 11.904296875 27.57305145263672 C 9.809600830078125 30.67361450195312 8.010551452636719 33.98808288574219 6.557098388671875 37.42440032958984 C 3.533233642578125 44.57363128662109 2 52.16916656494141 2 60 C 2 67.83083343505859 3.533233642578125 75.42636108398438 6.557098388671875 82.57559967041016 C 8.010551452636719 86.01191711425781 9.809600830078125 89.32638549804688 11.904296875 92.42694854736328 C 13.97944641113281 95.49858093261719 16.36268615722656 98.3870849609375 18.98780059814453 101.0121994018555 C 21.6129150390625 103.6373138427734 24.50141906738281 106.0205535888672 27.57305145263672 108.095703125 C 30.67361450195312 110.1903991699219 33.98808288574219 111.9894485473633 37.42440032958984 113.4429016113281 C 44.57363128662109 116.4667663574219 52.16916656494141 118 60 118 C 67.83083343505859 118 75.42636108398438 116.4667663574219 82.57559967041016 113.4429016113281 C 86.01191711425781 111.9894485473633 89.32638549804688 110.1903991699219 92.42694854736328 108.095703125 C 95.49858093261719 106.0205535888672 98.3870849609375 103.6373138427734 101.0121994018555 101.0121994018555 C 103.6373138427734 98.3870849609375 106.0205535888672 95.49858093261719 108.095703125 92.42694854736328 C 110.1903991699219 89.32638549804688 111.9894485473633 86.01191711425781 113.4429016113281 82.57559967041016 C 116.4667663574219 75.42636108398438 118 67.83083343505859 118 60 C 118 52.16916656494141 116.4667663574219 44.57363128662109 113.4429016113281 37.42440032958984 C 111.9894485473633 33.98808288574219 110.1903991699219 30.67361450195312 108.095703125 27.57305145263672 C 106.0205535888672 24.50141906738281 103.6373138427734 21.6129150390625 101.0121994018555 18.98780059814453 C 98.3870849609375 16.36268615722656 95.49858093261719 13.97944641113281 92.42694854736328 11.904296875 C 89.32638549804688 9.809600830078125 86.01191711425781 8.010551452636719 82.57559967041016 6.557098388671875 C 75.42636108398438 3.533233642578125 67.83083343505859 2 60 2 M 60 0 C 93.1370849609375 0 120 26.8629150390625 120 60 C 120 93.1370849609375 93.1370849609375 120 60 120 C 26.8629150390625 120 0 93.1370849609375 0 60 C 0 26.8629150390625 26.8629150390625 0 60 0 Z" stroke="none" fill="#ddbee4"/>
        </g>
      </g>
    </g>
    <g id="Group_433" data-name="Group 433" transform="translate(241 4041.052)">
      <g id="Group_432" data-name="Group 432" clip-path="url(#clip-path)">
        <path id="Path_7446" data-name="Path 7446" d="M132.324,138.555a16.053,16.053,0,0,1-1.848-.837,5.722,5.722,0,0,1-2.755-4.909q-.028-3.781,0-7.562a5.8,5.8,0,0,1,5.141-5.955c.154-.025.308-.057.494-.092a4.935,4.935,0,0,0,.122-1.78,5.818,5.818,0,1,1,11.635.036c.008.553,0,1.107,0,1.549.328.345.631.264.9.314a5.8,5.8,0,0,1,4.869,5.826c.011,2.4,0,4.8,0,7.2a5.747,5.747,0,0,1-4.294,6.042,2.359,2.359,0,0,0-.317.166Zm6.974-3.914c1.76,0,3.52.012,5.28,0,1.673-.015,2.353-.677,2.365-2.317q.024-3.42,0-6.84c-.013-1.572-.7-2.256-2.289-2.263q-5.34-.023-10.68,0c-1.637.007-2.3.691-2.31,2.367q-.022,3.36,0,6.72c.012,1.653.682,2.315,2.354,2.332,1.76.018,3.52,0,5.28,0m1.791-15.436a6.041,6.041,0,0,0,.031-2.07,1.843,1.843,0,0,0-3.655.047,4.741,4.741,0,0,0,.073,2.028,22.706,22.706,0,0,0,3.551,0" transform="translate(-96.884 -84.66)" fill="url(#linear-gradient)"/>
        <path id="Path_7447" data-name="Path 7447" d="M27.074,42.009c0,1.191-.008,2.265,0,3.339.006.552-.355.634-.782.694a22.292,22.292,0,0,1-8.468-.4,23.141,23.141,0,1,1,28.14-26.581,13.741,13.741,0,0,1,.211,4.867,21.008,21.008,0,0,0-3.765-.839c-.3-6.715-3.035-12.148-8.646-15.932A18.4,18.4,0,0,0,20.011,4.217,19.152,19.152,0,0,0,4.05,24.535,19.375,19.375,0,0,0,27.074,42.009" transform="translate(0 0)" fill="url(#linear-gradient)"/>
        <path id="Path_7448" data-name="Path 7448" d="M57.006,75.565a9.585,9.585,0,0,1,.8-1.057q4.7-4.737,9.418-9.45a6.349,6.349,0,0,1,.89-.8,1.838,1.838,0,0,1,2.329.166,1.879,1.879,0,0,1,.46,2.388,4.547,4.547,0,0,1-.762.92Q64.371,73.522,58.592,79.3c-1.394,1.393-2.266,1.391-3.665,0q-2.939-2.925-5.865-5.864l-.085-.085c-1.091-1.12-1.206-2.278-.312-3.146s2.012-.728,3.146.4c1.338,1.325,2.674,2.653,3.99,4a7.408,7.408,0,0,1,.7.986l.508-.021" transform="translate(-36.466 -48.489)" fill="url(#linear-gradient)"/>
        <path id="Path_7449" data-name="Path 7449" d="M169.577,175.293a1.94,1.94,0,0,1,1.971,1.974,1.961,1.961,0,1,1-1.971-1.974" transform="translate(-127.168 -132.984)" fill="url(#linear-gradient)"/>
      </g>
    </g>
  </g>
</svg>
